<svg version="1.1" xmlns="http://www.w3.org/2000/svg" xmlns:xlink="http://www.w3.org/1999/xlink" width="292.32109" height="151.49322" viewBox="0,0,292.32109,151.49322"><g transform="translate(-134.5883,-16.8)"><g data-paper-data="{&quot;isPaintingLayer&quot;:true}" fill="#ffffff" fill-rule="nonzero" stroke-linecap="butt" stroke-linejoin="miter" stroke-miterlimit="10" stroke-dasharray="" stroke-dashoffset="0" style="mix-blend-mode: normal"><text transform="translate(217.98751,38.8) scale(0.5,0.5)" font-size="40" xml:space="preserve" fill="#ffffff" fill-rule="nonzero" stroke="#ffffff" stroke-width="2" stroke-linecap="butt" stroke-linejoin="miter" stroke-miterlimit="10" stroke-dasharray="" stroke-dashoffset="0" font-family="Sans Serif" font-weight="normal" text-anchor="start" style="mix-blend-mode: normal"><tspan x="0" dy="0">hage肉シミュレーター</tspan></text><path d="" stroke="none" stroke-width="0.5"/><path d="" stroke="none" stroke-width="0.5"/><path d="" stroke="none" stroke-width="0.5"/><path d="" stroke="none" stroke-width="0.5"/><path d="" stroke="none" stroke-width="0.5"/><path d="" stroke="none" stroke-width="0.5"/><path d="" stroke="none" stroke-width="0.5"/><path d="" stroke="none" stroke-width="0.5"/><path d="M252.64734,139.85442c-0.69489,-0.06181 -1.49073,0.02112 -2.20463,0.09248c0.10681,0.73788 0.21748,1.47419 0.33254,2.21361c0.05997,0.38532 -0.07436,0.85087 0.14134,1.16236c0.22173,0.32018 0.72111,0.23801 1.00487,0.49284c0.94475,0.84841 1.71442,2.10455 2.72071,2.98136c0.72358,0.63047 1.37111,0.74701 1.84241,1.79246c0.28068,0.62261 0.05382,2.26969 0.05214,2.98612c-0.00641,2.73808 -0.81333,5.23516 -0.82706,7.88927c-0.65429,2.55791 -1.98097,3.05745 -4.2415,3.05745c-0.18596,0 -1.99042,0.01921 -2.17995,-0.05708c-0.24244,-0.09758 -0.30482,-0.50432 -0.54796,-0.59982c-0.54593,-0.21444 -1.1651,0.14028 -1.7394,0.05145c-1.366,-0.21127 -2.62549,-0.532 -3.4857,-1.8053c-0.83943,-1.24254 -1.48295,-4.51635 -0.95572,-6.37136c-0.19005,-0.3397 -0.37076,-0.68555 -0.54013,-1.03867l0.35175,-0.28741l-0.15445,-0.16907l0.54796,-0.59982c0.12395,-0.13568 0.29518,-0.2196 0.48432,-0.2196c0.37829,0 0.68494,0.33569 0.68494,0.74977v1.19964h-0.04031c1.47889,1.70225 2.36021,4.29146 4.06748,5.64019c0.51774,0.40901 1.26939,0.15423 1.90587,0.2095c2.27723,0.19775 1.52933,-1.79371 1.45895,-3.80091c-0.075,-2.13893 -0.81405,-4.75298 -2.24619,-6.30267c-0.48441,-0.52417 -1.05344,-0.97853 -1.42419,-1.60401c-2.05921,-2.53617 -5.88898,-6.40001 -4.48916,-10.33016c0.59485,-1.67009 2.73102,-1.05565 3.93823,-1.05375c1.44016,0.00226 3.83485,-0.38381 5.50337,0.23918c0.00109,-0.00129 0.00218,-0.00259 0.00328,-0.00387c0.46723,-0.54826 0.96807,-0.0368 0.96807,-0.0368l0.68599,0.70059c0.63325,0.61612 1.2162,1.19371 1.77172,1.81047c0.08631,0.084 0.17342,0.16679 0.26297,0.24583l0.03619,-0.03961l0.82193,0.89974c0.12395,0.13568 0.20062,0.32313 0.20062,0.53017c0,0.12465 -0.02779,0.24221 -0.07696,0.34563c0.07573,0.13086 0.14675,0.26608 0.21394,0.40414l0.81778,1.19358c0.08853,0.12633 0.14114,0.28441 0.14114,0.45593c0,0.41409 -0.30666,0.74977 -0.68494,0.74977c-0.08134,0 -0.15938,-0.01552 -0.23176,-0.04401l-0.80676,-0.29438l0.01038,-0.0341l-0.09472,-0.00366c-0.88619,-0.64339 -1.46083,-1.72244 -2.18702,-2.49898c-0.2611,-0.01209 -0.52066,-0.03301 -0.75295,-0.12517c-0.01524,0.0008 -0.03084,0.0012 -0.04682,0.0012c-0.36727,0 -0.5376,-0.21558 -0.6166,-0.41554c-0.14017,-0.11469 -0.26981,-0.23671 -0.39604,-0.35898z" stroke="none" stroke-width="0.5"/><path d="M265.32725,141.34302l0.66166,-1.014c0.75639,0.00786 1.50547,0.28196 2.19951,0.61128c0.11592,1.8912 -0.48116,2.40742 -0.69777,4.12893c-0.33379,2.65265 -0.33741,5.2498 -0.83274,7.8669c-0.23533,1.24337 0.0123,2.71659 -0.27635,3.91025c-0.45482,1.8808 -2.07268,2.3958 -2.86493,3.93163c-0.38868,0.75349 -1.18179,2.83583 -2.29678,2.90903c-0.70545,0.04632 -1.37472,-0.35959 -2.06207,-0.53938c-0.3355,-2.99994 0.46542,-6.37217 1.86488,-8.9671c0.19266,-0.35725 0.61154,-0.52056 0.80854,-0.87496c0.42495,-0.76451 0.20069,-1.91185 0.5307,-2.77212c1.05371,-2.74686 2.0255,-5.82094 2.68856,-8.73681c0,0 0.0651,-0.28506 0.27681,-0.45366z" stroke="none" stroke-width="0.5"/><path d="M269.2633,161.63888c-0.08271,0.1196 -0.21872,0.25782 -0.41755,0.28922c-0.12504,0.02674 -0.27217,0.01082 -0.43649,-0.09069c-0.1695,-0.09071 -0.26483,-0.2144 -0.31554,-0.34236c-0.089,-0.19715 -0.062,-0.39813 -0.01884,-0.54049c0.00971,-0.03806 0.01782,-0.06026 0.01782,-0.06026c1.19569,-3.24891 1.33754,-6.68333 1.85405,-10.06463c0.36539,-2.392 1.31312,-4.839 2.01224,-7.13489c0.32488,-1.06689 0.666,-1.98781 1.11983,-3.00653c0.22577,-0.5068 0.15932,-1.40588 0.6621,-1.5284c1.75996,-0.42891 1.40641,2.13799 1.42512,2.77721c0.14105,1.37975 0.13608,2.78134 0.26989,4.1486c0.12128,1.23921 0.65992,2.32849 0.77505,3.59733c0.12937,1.42582 -0.27312,2.96777 0.39934,4.06167c0.12527,0.20379 0.04631,0.8064 0.24259,0.68737c0.25279,-0.1533 0.05382,-0.63888 0.16153,-0.93244c0.33142,-0.90326 0.82545,-1.72649 1.17705,-2.62056c1.26484,-3.21622 2.5961,-6.3871 4.02665,-9.51902c0.64422,-1.41041 1.12586,-2.60404 2.13181,-3.73995l0.51542,-0.84633c0.12196,-0.20671 0.33428,-0.34355 0.5758,-0.34355c0.3183,0 0.58589,0.23767 0.66275,0.55973l0.37217,1.42592l-0.21468,0.06714c0.46255,1.88673 0.41122,3.73667 0.41265,5.89429c0.00218,3.29918 0,6.59838 0,9.89756c0,1.6807 0.53961,4.70637 -0.05214,6.28512c-0.56989,1.52043 -1.85779,2.47859 -3.1478,3.07333c-0.74916,-3.23234 -0.03285,-6.17015 0.18801,-9.41276c0.09997,-1.46786 -0.28501,-3.11457 0.19882,-4.51399c0.13335,-0.38569 -0.32967,0.74199 -0.51043,1.1038c-0.21397,0.4283 -0.42157,0.86038 -0.63421,1.28948c-0.51855,1.04643 -1.28232,2.3739 -1.9672,3.27104c-0.7042,0.92245 -1.51987,1.60851 -2.17559,2.67833c-0.52923,0.44278 -0.92159,1.3235 -1.58769,1.32836c-0.51413,0.00375 -0.75096,-0.80231 -0.97347,-1.30968c-0.12145,-0.27695 0.0658,-0.62433 -0.00503,-0.92158c-0.14814,-0.62174 -0.73634,-1.01024 -1.01193,-1.57754c-0.3617,-0.74455 -0.35962,-1.68344 -0.8053,-2.37125c-0.25025,-0.38619 -0.70679,-0.60544 -0.88871,-1.03501c-0.04748,-0.11212 -0.07456,-2.279 -0.05213,-2.3863c0.00079,-0.00376 0.00181,-0.00759 0.00305,-0.01148c-0.2526,0.16265 -0.54281,0.27904 -0.73191,0.51915c-0.39275,0.49869 -0.1737,1.30352 -0.23278,1.95876c-0.09335,1.03525 0.09446,2.11332 -0.1588,3.11598c-0.44745,1.77144 -1.64872,2.34036 -1.64872,4.23198c-0.2112,0.36612 -0.4224,0.73224 -0.6336,1.09836l-0.54796,0.89973c0,0 -0.01211,0.01989 -0.03526,0.05021z" stroke="none" stroke-width="0.5"/><path d="M290.25354,141.22052c-0.56571,-0.08153 -0.56572,-0.74155 -0.56572,-0.74155l0.02045,-0.48176c0.2305,-0.57237 0.14958,-1.51863 0.69148,-1.71712c1.6794,-0.61514 2.39519,3.04665 2.56694,4.17814c0.33098,2.18055 0.0132,4.80688 0.00884,7.01803c-0.00273,1.3911 0.17744,3.45 1.28211,4.43742c0.31321,0.27997 0.80662,-0.08453 1.21095,-0.07904c1.89225,-0.65425 2.92247,-3.12827 3.93769,-4.79678c0.31641,-0.52002 0.87155,-0.92097 0.98494,-1.53332c0.18758,-1.01294 -0.01832,-2.70202 -0.01832,-3.72657c0,-1.5783 -0.37087,-4.8023 0.81136,-5.98935c0.30752,-0.30877 0.82621,-0.15156 1.24345,-0.1588c2.51456,-0.04361 2.59563,2.43569 2.60277,4.64861c0,2.59923 0,5.19843 0,7.79766c0,0.97397 0.23037,3.12595 -0.08105,3.95271c-0.13829,0.36716 -0.64807,0.39528 -0.88071,0.70002c-0.46094,0.6038 -0.18817,1.58452 -0.48917,2.29908c-0.23599,0.56025 -1.47709,1.41282 -1.79898,1.71218c-1.2409,1.15408 -1.57319,2.60857 -3.30515,3.1624c-0.08027,0.02567 -1.63711,0.02005 -1.80123,0.02005c-0.19944,0 -2.52416,0.01918 -2.7279,-0.05707c-1.06165,-0.39733 -2.02023,-1.98234 -2.57325,-2.94763c-0.46578,-0.813 -1.29676,-1.37048 -1.6331,-2.2567c-0.41014,-1.08065 -0.05213,-3.32119 -0.05213,-4.48567c0,-3.65343 0.54796,-7.18361 0.54796,-10.79677c0,0 0,-0.06568 0.01776,-0.15817z" stroke="none" stroke-width="0.5"/><path d="M308.61953,143.24353c-0.01389,-0.13074 0.00204,-0.25376 0.02361,-0.34928c0.02614,-0.12726 0.08095,-0.29292 0.19586,-0.42814l0.45534,-0.79835c1.49336,-1.08679 3.08021,-1.9748 4.78713,-2.58324c0.40668,0 0.96085,-0.05088 1.50124,-0.00298c0,0.03997 0,0.07994 0,0.11991c-0.96105,0 -0.96105,1.05202 -0.96105,1.05202c0,0.98188 0,1.96377 0,2.94565c0,0.50492 0.0977,1.0185 0.01241,1.51471c-0.18695,1.08762 -0.62341,2.11566 -0.77551,3.20977c-0.13013,0.9361 0.09493,1.76048 -0.18553,2.68152l-0.01235,1.00539c-0.00006,0.00312 -0.00006,0.00475 -0.00006,0.00475c0,1.03182 0.06712,1.93679 -0.2867,2.90424c-0.14783,0.40421 -0.56225,0.77168 -0.47747,1.19708c0.10855,0.54458 0.5256,1.02296 0.97301,1.28907c0.28315,0.16843 0.62218,0.12623 0.95644,0.09648c0.01655,0.0224 0.03376,0.0448 0.05166,0.06719c0.57405,0.71793 2.00194,0.57967 2.66717,0.54672c0.53202,-0.02636 1.06679,-0.04764 1.59539,-0.11756c0.68621,0.02501 1.37862,0.04256 2.04472,-0.01768c0.00517,0.00399 0.01033,0.00801 0.01546,0.01206c0.18731,0.14801 0.37573,0.29597 0.57663,0.42081c0.09664,0.06004 0.26233,0.02162 0.3112,0.13086c0.0904,0.20209 0.03224,0.44863 0.04835,0.67295l0.24485,0.40249c0.03647,0.09748 0.08591,0.18764 0.14598,0.26789c0.01509,0.19419 0.03328,0.41058 0.04333,0.62034c-0.15232,0.32858 -0.36137,0.63666 -0.42712,0.9965c-0.03293,0.18022 0.02215,0.36964 0.06418,0.55609c-0.10115,0.21686 -0.19603,0.43541 -0.24827,0.66809c-0.09839,0.03074 -0.2035,0.05658 -0.2791,0.1164c-0.09637,0.07625 -0.1204,0.24526 -0.22824,0.30009c-0.21171,0.10764 -0.47019,0.06156 -0.68412,0.16378c-0.30463,0.14555 -0.54734,0.41602 -0.8182,0.62918c-1.17806,-0.06749 -2.22395,-0.03614 -2.66532,0.44611c-1.71784,1.38501 -7.39732,2.28562 -9.75367,-0.04399c-0.462,-0.45675 -0.25215,-4.61601 -0.17918,-5.24917c0.22631,-1.96353 1.07291,-3.91175 1.27244,-5.90141c0.31058,-3.09709 0.0051,-6.41731 -0.00453,-9.54635z" stroke="none" stroke-width="0.5"/><path d="M325.90542,158.16763c-0.44414,0.2317 -0.91344,0.4481 -1.40068,0.6452c0.04524,-0.16313 0.07977,-0.33873 0.10055,-0.53c0.02835,-0.26103 0.03027,-0.5508 0.01469,-0.85722c0.28978,-1.32529 0.83754,-2.59313 1.25927,-3.89528c0.49316,-0.11509 0.99524,-0.21653 1.50255,-0.30542c0.31388,-1.04337 0.69123,-2.07024 1.00517,-3.04534c0.67485,-2.09607 0.88639,-4.82364 1.95829,-6.72143c0.62875,-1.1132 1.58144,-2.19415 2.33077,-3.22019c1.22833,-1.14071 2.83991,-2.81381 4.61162,-1.84613c1.2037,0.65745 2.04155,3.51531 2.65788,4.7033c0.9269,1.78663 1.65145,3.5508 2.22917,5.33374c0.32819,-0.12088 0.65711,-0.23922 0.99108,-0.34933l-0.07563,-0.19306l1.27334,-0.59783c0.06537,-0.03266 0.13647,-0.05479 0.21173,-0.0642c0.3846,-0.04808 0.73199,0.25423 0.77591,0.67524c0.02649,0.25394 -0.06346,0.49306 -0.22344,0.6534l-0.82405,0.84467l-0.0283,-0.03308l-0.0585,0.10885c-0.50644,0.25975 -1.00365,0.55159 -1.47374,0.88624c0.79305,2.98085 1.23875,6.05371 1.58843,9.40542c0.04428,0.42447 0.61029,3.78603 0.05226,4.07218c-1.77422,0.9098 -2.12945,-1.59382 -2.64922,-2.50564c-1.4467,-2.53785 -3.24867,-4.71133 -4.90788,-6.99895c-0.15161,-0.20903 -0.30218,-0.46002 -0.44802,-0.73629c-0.11538,0.02834 -0.23108,0.05601 -0.34711,0.0831c-0.11702,0.57975 -0.70052,0.56175 -0.70052,0.56175c-0.66155,-0.02103 -1.35251,-0.02653 -2.06156,-0.01346c-0.21939,0.95422 -0.60834,1.97908 -0.98923,2.6126c-0.41074,0.68317 -1.23145,1.02403 -1.56615,1.75522c-0.26159,0.57146 -0.27666,1.25411 -0.54204,1.82347c-0.4548,0.97573 -1.16208,1.72984 -1.32276,2.76126l-0.24229,0.74923c0,0 -0.2403,0.72075 -0.89873,0.45771c-0.04678,-0.01869 -0.08901,-0.03968 -0.12713,-0.06257c-0.09366,0.27614 -0.19568,0.53819 -0.30636,0.7811c0,0 -0.32011,0.68256 -0.94365,0.33215c-0.62354,-0.35041 -0.30342,-1.03297 -0.30342,-1.03297c1.02853,-2.11325 0.72753,-4.46465 0.70283,-6.7465c-0.27459,0.1922 -0.54944,0.36525 -0.82509,0.50905zM335.41611,151.68554c-0.57234,0.12569 -1.39029,0.09869 -2.15267,0.15805c0.01881,0.17385 0.06587,0.34715 0.10792,0.5211c0.77115,-0.13784 1.5405,-0.24618 2.29977,-0.37599c-0.04171,-0.11132 -0.08201,-0.22214 -0.12072,-0.3317c-0.04556,0.00938 -0.09033,0.01889 -0.13429,0.02855zM335.1964,149.84243c-0.19033,-0.25794 -0.62979,-0.15917 -0.82797,-0.40993c-0.03845,-0.04865 -0.05378,-0.10659 -0.0569,-0.16969c-0.03179,0.22677 -0.07198,0.45215 -0.10659,0.67846c-0.02418,0.05186 -0.05112,0.10245 -0.08016,0.15203c0.37041,-0.05003 0.74407,-0.09235 1.11849,-0.1319c-0.00621,-0.04306 -0.02045,-0.08316 -0.04688,-0.11897zM334.33627,149.00741c0.01214,-0.08145 0.02217,-0.16281 0.01256,-0.23744c-0.0115,-0.08926 -0.00852,0.09184 -0.01256,0.23744z" stroke="none" stroke-width="0.5"/><path d="M362.00056,143.07329c0.24048,0.27542 0.17691,3.27188 0.17649,3.48034c-0.00542,2.65452 -1.00428,5.18935 -1.34134,7.78882c-0.29393,2.26689 0.45078,4.04881 -0.72687,6.09163c-0.19784,1.12789 -0.06342,3.24616 -0.76943,4.18707c-1.03937,1.38519 -3.3276,1.77481 -4.09865,-0.20462c-0.50429,-1.2946 -0.06343,-4.05666 -0.06343,-5.45727c0,-1.57308 -0.20123,-3.33034 0.01,-4.88426c0.32075,-2.35958 1.03678,-4.37717 1.41378,-6.60021c-0.54029,0.50559 -1.07689,0.99432 -1.61109,1.43833c-2.45715,0.48092 -5.50623,0.90845 -7.6075,-1.04871c-0.62912,-0.58596 -1.54739,-1.2263 -1.53408,-2.13041c0.04182,-2.83944 1.9433,-0.95274 2.78982,-1.45573c0.94482,-0.5614 1.02579,-2.16702 1.89892,-2.85358c0.69203,-0.54417 2.48457,-0.6618 3.26751,-0.86312c3.03381,-0.78006 5.63139,-2.31023 8.73058,-2.87746c1.32854,-0.56066 2.32997,-0.89949 3.56966,-1.03592l-0.02488,-0.08171l0.9815,-0.35814c0.08806,-0.03466 0.183,-0.05354 0.28197,-0.05354c0.46022,0 0.8333,0.40839 0.8333,0.91218c0,0.25189 -0.09327,0.47993 -0.24407,0.64501l-0.6465,0.7077c-0.85771,1.13042 -1.68092,2.55056 -2.79092,3.40263c-0.7536,0.57849 -1.68766,0.80171 -2.53178,1.20926c0.01239,0.01375 0.02473,0.02766 0.03702,0.04172z" stroke="none" stroke-width="0.5"/><g stroke="none" stroke-width="0.5"><path d="M374.52343,141.77282c0.0771,-0.03307 0.1538,-0.06672 0.23006,-0.10072c2.47894,-0.67026 4.8034,-0.11499 7.06413,1.15406c0.65111,0.36549 1.58014,0.44792 1.92539,1.15414c0.05819,0.11904 -0.23272,4.66483 -0.23348,5.12743c-0.00817,4.9205 -2.02589,13.54895 -6.9525,15.11159c-0.57649,0.18285 -2.52194,-0.05917 -3.10688,-0.11456c-5.99902,-0.6405 -12.02713,-7.89873 -9.32081,-14.64621c0.9273,-2.31198 2.24406,-2.599 3.87512,-3.90668c1.87083,-1.49991 3.11595,-3.35474 5.29947,-4.55745c0,0 0.74533,-0.40794 1.11799,0.40795c0.06147,0.13459 0.09252,0.25808 0.10152,0.37046zM369.73394,158.53177c0.51014,0.63102 1.50789,0.3729 2.27604,0.42748c2.45507,0.17443 3.5447,-0.89321 4.00965,-2.57684c0.51194,-0.13557 0.98406,-0.42272 1.37441,-0.90343c0.48105,-0.59241 0.22394,-1.56764 0.28238,-2.35767c0.09078,-1.22703 0.22468,-5.1845 -0.51276,-5.8937c-0.37527,-0.36089 -0.90037,-0.26123 -1.43943,-0.11865c-0.18585,-0.11747 -0.38487,-0.16558 -0.55841,-0.18059c-0.05116,-0.00653 -0.1032,-0.00988 -0.15596,-0.00988c-0.13209,0 -0.2597,0.02102 -0.38017,0.06019l-1.52612,0.44634c-1.37954,1.194 -3.34739,3.47656 -2.53953,5.78339c-1.20681,1.69629 -2.10814,3.74248 -0.83011,5.32335z"/><path d="M374.61935,150.62981c-0.19306,-0.21134 -0.38613,-0.33612 -0.57109,-0.40093c0.07205,-0.06779 0.1403,-0.1247 0.20132,-0.16821l0.09022,-0.02221c0.23272,0.13233 0.48099,0.16242 0.67112,0.15943c-0.00036,0.00148 -0.00072,0.00297 -0.00108,0.00444c-0.07145,0.29728 -0.08699,0.60678 -0.07079,0.91963c-0.06587,-0.16122 -0.16855,-0.32668 -0.31972,-0.49215z"/><path d="M372.08378,156.01133c0.11936,-0.19439 0.23932,-0.40123 0.32964,-0.55496c0.29898,0.21069 0.61967,0.39917 0.95174,0.55511c-0.38653,0.18444 -0.90793,-0.01134 -1.28139,-0.00015z"/><path d="M369.74481,151.36249c-0.26933,0.50802 0.10951,1.17155 0.09859,1.75881c-0.00515,0.27701 -0.11777,0.56817 -0.03575,0.83028c0.02495,0.07975 0.06053,0.17145 0.10514,0.27245c-0.39142,0.69178 -0.6844,1.41197 -0.77275,2.11437c-0.43601,-0.6863 -0.77955,-1.36384 -0.92748,-1.85815c-0.56815,-1.89847 -0.10934,-4.13623 1.43139,-5.09734c0.67758,-0.42268 1.69206,-0.56896 2.41078,-0.96496c-0.13889,-0.22004 -0.2753,-0.44607 -0.4094,-0.67926l-0.63531,0.09198c0,0 -0.8333,0 -0.8333,-0.91218c0,-0.91218 0.8333,-0.91218 0.8333,-0.91218l1.36462,0.09197c0.2408,0.30235 0.45757,0.62646 0.66848,0.95578c0.15495,-0.21584 0.43659,-0.43919 0.89698,-0.27119c0.18593,0.06785 0.31356,0.1676 0.40002,0.28051l-1.23654,0.36165c-0.85954,0.74393 -1.94744,1.91044 -2.45008,3.24211c-0.41441,0.17449 -0.74751,0.39133 -0.90868,0.69535z"/><path d="M378.33865,152.56761c0.66779,0.96903 0.49526,2.12276 0.49815,3.21924c-0.09978,0.44392 -0.55999,2.90332 -1.00646,3.18265c-0.62499,0.39101 -1.43472,0.13668 -2.15384,0.17218c-1.00972,0.04985 -3.04138,0.34775 -3.9854,-0.06945c-0.07143,-0.03156 -0.14503,-0.07053 -0.22037,-0.11621c0.18585,-0.00558 0.36824,-0.00893 0.53925,0.00322c1.9626,0.13945 3.05262,-0.51485 3.64847,-1.64307c0.00606,0.00036 0.01207,0.00075 0.01805,0.00115c0.39583,0.02713 0.80309,0.30937 1.17936,0.17218c0.51625,-0.18823 0.23993,-1.10929 0.2994,-1.74972c0.08252,-0.0797 0.16222,-0.16653 0.23878,-0.2608c0.48105,-0.59241 0.22394,-1.56764 0.28238,-2.35767c0.02178,-0.29435 0.04603,-0.74583 0.06016,-1.27191c0.22539,0.22969 0.42954,0.46785 0.60208,0.71822z"/><path d="M374.61935,150.62981c-0.19306,-0.21134 -0.38613,-0.33612 -0.57109,-0.40093c0.07205,-0.06779 0.1403,-0.1247 0.20132,-0.16821l0.09022,-0.02221c0.23272,0.13233 0.48099,0.16242 0.67112,0.15943c-0.00036,0.00148 -0.00072,0.00297 -0.00108,0.00444c-0.07145,0.29728 -0.08699,0.60678 -0.07079,0.91963c-0.06587,-0.16122 -0.16855,-0.32668 -0.31972,-0.49215z"/></g><path d="M387.53363,147.78573c0.18616,-2.67132 0.37232,-5.34265 0.55847,-8.01396c0.04488,-0.64407 0.00535,-2.80006 0.39658,-3.23437c0.20955,-0.23262 2.09394,-0.01462 2.28334,0.00328c0.69482,0.06568 1.34005,0.43009 1.9905,0.7055c0.55631,0.23554 1.20271,-0.00922 1.78549,0.1299c0.98809,0.2359 1.71312,0.44015 2.53699,1.11635c0.66343,0.8705 1.62373,1.03908 1.90167,2.25959c0.02597,0.11406 -0.1426,2.40607 -0.14749,2.47633c-0.10725,1.53904 -0.08476,3.34283 -0.61344,4.78112c-0.1982,0.53922 -0.36429,1.16163 -0.78369,1.51808c-0.27144,0.23069 -0.68745,0.0419 -1.0307,0.02393c-0.06341,-0.00332 -0.14561,-0.00336 -0.23634,-0.00284c0.39339,0.19058 0.78079,0.4234 0.78244,0.42512c1.20522,1.25774 1.23352,2.55621 1.1193,4.19532c-0.09456,1.35699 -0.18913,2.71398 -0.28369,4.07097c-0.04313,0.61901 -0.30204,1.77002 -0.18267,2.39691c0.38863,2.04088 2.81251,2.88502 2.8722,4.9242c0.07117,2.43125 -2.3676,3.28302 -4.12795,2.38121c-0.99687,-0.51069 -1.73231,-1.82336 -2.42322,-2.70943c-1.36306,-2.67072 -1.1437,-5.70157 -0.93082,-8.67267c0.05428,-0.75768 0.14791,-2.25025 -0.14198,-2.95042c-0.1053,-0.25432 -0.59977,-0.51369 -0.72437,-0.27004c-0.36571,0.71508 -0.38139,2.07519 -0.63499,2.84328c-0.2496,0.75596 -0.38515,1.55359 -0.51354,2.34503c-0.19118,1.17856 -0.38426,2.23827 -0.51056,3.44036c-1.11544,1.04794 -4.05415,1.4298 -4.55766,-0.69594c-0.34638,-1.46236 0.728,-3.68244 1.03671,-5.06372c0.43709,-1.95581 0.8273,-5.72557 -0.08924,-7.48348c0,0 -0.28545,-0.55618 0.22263,-0.86864c0.17639,-0.10848 0.32595,-0.11227 0.44604,-0.07097zM392.59049,141.57964c-0.84442,-0.07052 -0.90884,0.85384 -0.90884,0.85384c-0.0468,0.67163 -0.54641,3.48249 -0.13141,3.98127c2.43368,2.92504 3.40617,-0.75875 3.55299,-2.70383l-0.19661,-1.05421c0,0 -0.20592,-0.89922 -1.02738,-0.67381c-0.12231,0.03356 -0.22184,0.08206 -0.30267,0.1403c-0.09069,-0.10415 -0.21707,-0.19056 -0.39304,-0.23382c-0.1147,-0.1568 -0.29864,-0.28516 -0.59303,-0.30975z" stroke="none" stroke-width="0.5"/><path d="" stroke="none" stroke-width="0.5"/><text transform="translate(135.25,106.5) scale(1.3234,1.3234)" font-size="40" xml:space="preserve" fill="#ffffff" fill-rule="nonzero" stroke="none" stroke-width="1" stroke-linecap="butt" stroke-linejoin="miter" stroke-miterlimit="10" stroke-dasharray="" stroke-dashoffset="0" font-family="Marker" font-weight="normal" text-anchor="start" style="mix-blend-mode: normal"><tspan x="0" dy="0">hageniku</tspan></text></g></g></svg>