<svg version="1.1" xmlns="http://www.w3.org/2000/svg" xmlns:xlink="http://www.w3.org/1999/xlink" width="332.32734" height="281.78678" viewBox="0,0,332.32734,281.78678"><g transform="translate(-129.63964,-130.19519)"><g data-paper-data="{&quot;isPaintingLayer&quot;:true}" fill="#ffffff" fill-rule="nonzero" stroke="none" stroke-width="0" stroke-linecap="butt" stroke-linejoin="miter" stroke-miterlimit="10" stroke-dasharray="" stroke-dashoffset="0" style="mix-blend-mode: normal"><path d="M284.2943,337.65766c0,41.04819 -34.62062,74.32432 -77.32733,74.32432c-42.7067,0 -77.32733,-33.27613 -77.32733,-74.32432c0,-41.04819 34.62062,-74.32432 77.32733,-74.32432c42.7067,0 77.32733,33.27613 77.32733,74.32432z"/><path d="M461.96698,204.51951c0,41.04819 -34.62062,74.32432 -77.32733,74.32432c-42.7067,0 -77.32733,-33.27613 -77.32733,-74.32432c0,-41.04819 34.62062,-74.32432 77.32733,-74.32432c42.7067,0 77.32733,33.27613 77.32733,74.32432z"/><path d="M291.2913,226.03603c0,41.04819 -34.62062,74.32432 -77.32733,74.32432c-42.7067,0 -77.32733,-33.27613 -77.32733,-74.32432c0,-41.04819 34.62062,-74.32432 77.32733,-74.32432c42.7067,0 77.32733,33.27613 77.32733,74.32432z"/></g></g></svg>