<svg version="1.1" xmlns="http://www.w3.org/2000/svg" xmlns:xlink="http://www.w3.org/1999/xlink" width="202" height="181.47097" viewBox="0,0,202,181.47097"><defs><radialGradient cx="240" cy="179.9471" r="98.5" gradientUnits="userSpaceOnUse" id="color-1"><stop offset="0" stop-color="#ffffff"/><stop offset="1" stop-color="#1a1a1a"/></radialGradient><radialGradient cx="191.68294" cy="113.25605" r="34.07954" gradientUnits="userSpaceOnUse" id="color-2"><stop offset="0" stop-color="#ffffff"/><stop offset="1" stop-color="#1a1a1a"/></radialGradient><radialGradient cx="198.33342" cy="123.75096" r="52.56337" gradientUnits="userSpaceOnUse" id="color-3"><stop offset="0" stop-color="#ffffff"/><stop offset="1" stop-color="#1a1a1a"/></radialGradient><radialGradient cx="213.2853" cy="142.41457" r="69.89195" gradientUnits="userSpaceOnUse" id="color-4"><stop offset="0" stop-color="#ffffff"/><stop offset="1" stop-color="#1a1a1a"/></radialGradient><radialGradient cx="205.88008" cy="133.64792" r="62.80157" gradientUnits="userSpaceOnUse" id="color-5"><stop offset="0" stop-color="#ffffff"/><stop offset="1" stop-color="#1a1a1a"/></radialGradient><radialGradient cx="201.57332" cy="128.76139" r="58.33568" gradientUnits="userSpaceOnUse" id="color-6"><stop offset="0" stop-color="#ffffff"/><stop offset="1" stop-color="#1a1a1a"/></radialGradient><radialGradient cx="195.06074" cy="118.74978" r="44.47282" gradientUnits="userSpaceOnUse" id="color-7"><stop offset="0" stop-color="#ffffff"/><stop offset="1" stop-color="#1a1a1a"/></radialGradient><radialGradient cx="209.1933" cy="137.83911" r="66.94183" gradientUnits="userSpaceOnUse" id="color-8"><stop offset="0" stop-color="#ffffff"/><stop offset="1" stop-color="#1a1a1a"/></radialGradient><radialGradient cx="215.13858" cy="147.95196" r="73.87326" gradientUnits="userSpaceOnUse" id="color-9"><stop offset="0" stop-color="#ffffff"/><stop offset="1" stop-color="#1a1a1a"/></radialGradient><radialGradient cx="218.66173" cy="152.11609" r="75.53287" gradientUnits="userSpaceOnUse" id="color-10"><stop offset="0" stop-color="#ffffff"/><stop offset="1" stop-color="#1a1a1a"/></radialGradient><radialGradient cx="221.60653" cy="156.19389" r="77.91659" gradientUnits="userSpaceOnUse" id="color-11"><stop offset="0" stop-color="#ffffff"/><stop offset="1" stop-color="#1a1a1a"/></radialGradient><radialGradient cx="225.26512" cy="161.13993" r="79.04448" gradientUnits="userSpaceOnUse" id="color-12"><stop offset="0" stop-color="#ffffff"/><stop offset="1" stop-color="#1a1a1a"/></radialGradient><radialGradient cx="228.84274" cy="166.03333" r="80.87347" gradientUnits="userSpaceOnUse" id="color-13"><stop offset="0" stop-color="#ffffff"/><stop offset="1" stop-color="#1a1a1a"/></radialGradient><radialGradient cx="231.64891" cy="170.08311" r="80.62545" gradientUnits="userSpaceOnUse" id="color-14"><stop offset="0" stop-color="#ffffff"/><stop offset="1" stop-color="#1a1a1a"/></radialGradient><radialGradient cx="235.6788" cy="174.90235" r="81.19707" gradientUnits="userSpaceOnUse" id="color-15"><stop offset="0" stop-color="#ffffff"/><stop offset="1" stop-color="#1a1a1a"/></radialGradient><radialGradient cx="239.27648" cy="179.27181" r="82.2468" gradientUnits="userSpaceOnUse" id="color-16"><stop offset="0" stop-color="#ffffff"/><stop offset="1" stop-color="#1a1a1a"/></radialGradient><radialGradient cx="241.96458" cy="184.3739" r="81.10319" gradientUnits="userSpaceOnUse" id="color-17"><stop offset="0" stop-color="#ffffff"/><stop offset="1" stop-color="#1a1a1a"/></radialGradient><radialGradient cx="246.20311" cy="188.95048" r="80.52557" gradientUnits="userSpaceOnUse" id="color-18"><stop offset="0" stop-color="#ffffff"/><stop offset="1" stop-color="#1a1a1a"/></radialGradient><radialGradient cx="249.41772" cy="193.62443" r="79.75383" gradientUnits="userSpaceOnUse" id="color-19"><stop offset="0" stop-color="#ffffff"/><stop offset="1" stop-color="#1a1a1a"/></radialGradient><radialGradient cx="253.0212" cy="197.2731" r="78.46707" gradientUnits="userSpaceOnUse" id="color-20"><stop offset="0" stop-color="#ffffff"/><stop offset="1" stop-color="#1a1a1a"/></radialGradient><radialGradient cx="256.09789" cy="202.46511" r="77.97259" gradientUnits="userSpaceOnUse" id="color-21"><stop offset="0" stop-color="#ffffff"/><stop offset="1" stop-color="#1a1a1a"/></radialGradient><radialGradient cx="259.10475" cy="206.92635" r="75.524" gradientUnits="userSpaceOnUse" id="color-22"><stop offset="0" stop-color="#ffffff"/><stop offset="1" stop-color="#1a1a1a"/></radialGradient><radialGradient cx="263.57475" cy="210.80235" r="73.44682" gradientUnits="userSpaceOnUse" id="color-23"><stop offset="0" stop-color="#ffffff"/><stop offset="1" stop-color="#1a1a1a"/></radialGradient><radialGradient cx="265.59246" cy="216.5352" r="70.72116" gradientUnits="userSpaceOnUse" id="color-24"><stop offset="0" stop-color="#ffffff"/><stop offset="1" stop-color="#1a1a1a"/></radialGradient><radialGradient cx="270.54846" cy="219.99709" r="68.18622" gradientUnits="userSpaceOnUse" id="color-25"><stop offset="0" stop-color="#ffffff"/><stop offset="1" stop-color="#1a1a1a"/></radialGradient><radialGradient cx="272.54863" cy="225.51338" r="64.06923" gradientUnits="userSpaceOnUse" id="color-26"><stop offset="0" stop-color="#ffffff"/><stop offset="1" stop-color="#1a1a1a"/></radialGradient><radialGradient cx="275.30451" cy="229.57224" r="59.49479" gradientUnits="userSpaceOnUse" id="color-27"><stop offset="0" stop-color="#ffffff"/><stop offset="1" stop-color="#1a1a1a"/></radialGradient><radialGradient cx="278.74656" cy="233.20698" r="55.60652" gradientUnits="userSpaceOnUse" id="color-28"><stop offset="0" stop-color="#ffffff"/><stop offset="1" stop-color="#1a1a1a"/></radialGradient><radialGradient cx="281.69091" cy="237.58215" r="50.14562" gradientUnits="userSpaceOnUse" id="color-29"><stop offset="0" stop-color="#ffffff"/><stop offset="1" stop-color="#1a1a1a"/></radialGradient><radialGradient cx="285.19029" cy="241.81967" r="42.64304" gradientUnits="userSpaceOnUse" id="color-30"><stop offset="0" stop-color="#ffffff"/><stop offset="1" stop-color="#1a1a1a"/></radialGradient><radialGradient cx="288.36531" cy="245.38105" r="34.40905" gradientUnits="userSpaceOnUse" id="color-31"><stop offset="0" stop-color="#ffffff"/><stop offset="1" stop-color="#1a1a1a"/></radialGradient><radialGradient cx="288.35471" cy="249.591" r="21.37191" gradientUnits="userSpaceOnUse" id="color-32"><stop offset="0" stop-color="#ffffff"/><stop offset="1" stop-color="#1a1a1a"/></radialGradient><radialGradient cx="186.48307" cy="111.337" r="21.37191" gradientUnits="userSpaceOnUse" id="color-33"><stop offset="0" stop-color="#ffffff"/><stop offset="1" stop-color="#1a1a1a"/></radialGradient><radialGradient cx="303.97756" cy="128.71795" r="29.53474" gradientUnits="userSpaceOnUse" id="color-34"><stop offset="0" stop-color="#ffffff"/><stop offset="1" stop-color="#1a1a1a"/></radialGradient><radialGradient cx="294.72478" cy="137.01" r="45.55359" gradientUnits="userSpaceOnUse" id="color-35"><stop offset="0" stop-color="#ffffff"/><stop offset="1" stop-color="#1a1a1a"/></radialGradient><radialGradient cx="276.08997" cy="151.80922" r="59.66874" gradientUnits="userSpaceOnUse" id="color-36"><stop offset="0" stop-color="#ffffff"/><stop offset="1" stop-color="#1a1a1a"/></radialGradient><radialGradient cx="284.98235" cy="144.7124" r="54.19705" gradientUnits="userSpaceOnUse" id="color-37"><stop offset="0" stop-color="#ffffff"/><stop offset="1" stop-color="#1a1a1a"/></radialGradient><radialGradient cx="290.29971" cy="141.01088" r="50.49636" gradientUnits="userSpaceOnUse" id="color-38"><stop offset="0" stop-color="#ffffff"/><stop offset="1" stop-color="#1a1a1a"/></radialGradient><radialGradient cx="299.23365" cy="133.08669" r="38.54199" gradientUnits="userSpaceOnUse" id="color-39"><stop offset="0" stop-color="#ffffff"/><stop offset="1" stop-color="#1a1a1a"/></radialGradient><radialGradient cx="281.45042" cy="148.71342" r="56.91693" gradientUnits="userSpaceOnUse" id="color-40"><stop offset="0" stop-color="#ffffff"/><stop offset="1" stop-color="#1a1a1a"/></radialGradient><radialGradient cx="272.8582" cy="156.69643" r="62.34682" gradientUnits="userSpaceOnUse" id="color-41"><stop offset="0" stop-color="#ffffff"/><stop offset="1" stop-color="#1a1a1a"/></radialGradient><radialGradient cx="268.11465" cy="159.50483" r="64.45802" gradientUnits="userSpaceOnUse" id="color-42"><stop offset="0" stop-color="#ffffff"/><stop offset="1" stop-color="#1a1a1a"/></radialGradient><radialGradient cx="264.09872" cy="162.54837" r="65.66703" gradientUnits="userSpaceOnUse" id="color-43"><stop offset="0" stop-color="#ffffff"/><stop offset="1" stop-color="#1a1a1a"/></radialGradient><radialGradient cx="259.12179" cy="166.19188" r="66.93421" gradientUnits="userSpaceOnUse" id="color-44"><stop offset="0" stop-color="#ffffff"/><stop offset="1" stop-color="#1a1a1a"/></radialGradient><radialGradient cx="253.90847" cy="169.4482" r="68.1353" gradientUnits="userSpaceOnUse" id="color-45"><stop offset="0" stop-color="#ffffff"/><stop offset="1" stop-color="#1a1a1a"/></radialGradient><radialGradient cx="249.99031" cy="172.45526" r="68.28355" gradientUnits="userSpaceOnUse" id="color-46"><stop offset="0" stop-color="#ffffff"/><stop offset="1" stop-color="#1a1a1a"/></radialGradient><radialGradient cx="245.15801" cy="176.38586" r="69.08085" gradientUnits="userSpaceOnUse" id="color-47"><stop offset="0" stop-color="#ffffff"/><stop offset="1" stop-color="#1a1a1a"/></radialGradient><radialGradient cx="240.52582" cy="179.63223" r="69.2755" gradientUnits="userSpaceOnUse" id="color-48"><stop offset="0" stop-color="#ffffff"/><stop offset="1" stop-color="#1a1a1a"/></radialGradient><radialGradient cx="235.90647" cy="183.10715" r="69.04364" gradientUnits="userSpaceOnUse" id="color-49"><stop offset="0" stop-color="#ffffff"/><stop offset="1" stop-color="#1a1a1a"/></radialGradient><radialGradient cx="230.94138" cy="186.74974" r="68.95798" gradientUnits="userSpaceOnUse" id="color-50"><stop offset="0" stop-color="#ffffff"/><stop offset="1" stop-color="#1a1a1a"/></radialGradient><radialGradient cx="226.7263" cy="190.53644" r="67.6157" gradientUnits="userSpaceOnUse" id="color-51"><stop offset="0" stop-color="#ffffff"/><stop offset="1" stop-color="#1a1a1a"/></radialGradient><radialGradient cx="222.07044" cy="192.85409" r="67.25591" gradientUnits="userSpaceOnUse" id="color-52"><stop offset="0" stop-color="#ffffff"/><stop offset="1" stop-color="#1a1a1a"/></radialGradient><radialGradient cx="217.07349" cy="196.33262" r="65.59381" gradientUnits="userSpaceOnUse" id="color-53"><stop offset="0" stop-color="#ffffff"/><stop offset="1" stop-color="#1a1a1a"/></radialGradient><radialGradient cx="212.78543" cy="199.61026" r="64.14979" gradientUnits="userSpaceOnUse" id="color-54"><stop offset="0" stop-color="#ffffff"/><stop offset="1" stop-color="#1a1a1a"/></radialGradient><radialGradient cx="208.20981" cy="202.97591" r="63.23234" gradientUnits="userSpaceOnUse" id="color-55"><stop offset="0" stop-color="#ffffff"/><stop offset="1" stop-color="#1a1a1a"/></radialGradient><radialGradient cx="204.15487" cy="207.33904" r="60.61036" gradientUnits="userSpaceOnUse" id="color-56"><stop offset="0" stop-color="#ffffff"/><stop offset="1" stop-color="#1a1a1a"/></radialGradient><radialGradient cx="199.0673" cy="210.00299" r="59.093" gradientUnits="userSpaceOnUse" id="color-57"><stop offset="0" stop-color="#ffffff"/><stop offset="1" stop-color="#1a1a1a"/></radialGradient><radialGradient cx="194.97925" cy="214.04372" r="54.80086" gradientUnits="userSpaceOnUse" id="color-58"><stop offset="0" stop-color="#ffffff"/><stop offset="1" stop-color="#1a1a1a"/></radialGradient><radialGradient cx="191.88762" cy="217.92483" r="51.56065" gradientUnits="userSpaceOnUse" id="color-59"><stop offset="0" stop-color="#ffffff"/><stop offset="1" stop-color="#1a1a1a"/></radialGradient><radialGradient cx="187.55643" cy="220.45356" r="48.15737" gradientUnits="userSpaceOnUse" id="color-60"><stop offset="0" stop-color="#ffffff"/><stop offset="1" stop-color="#1a1a1a"/></radialGradient><radialGradient cx="183.60038" cy="223.93644" r="43.49748" gradientUnits="userSpaceOnUse" id="color-61"><stop offset="0" stop-color="#ffffff"/><stop offset="1" stop-color="#1a1a1a"/></radialGradient><radialGradient cx="179.04498" cy="227.024" r="36.95623" gradientUnits="userSpaceOnUse" id="color-62"><stop offset="0" stop-color="#ffffff"/><stop offset="1" stop-color="#1a1a1a"/></radialGradient><radialGradient cx="175.02147" cy="229.58826" r="29.82031" gradientUnits="userSpaceOnUse" id="color-63"><stop offset="0" stop-color="#ffffff"/><stop offset="1" stop-color="#1a1a1a"/></radialGradient><radialGradient cx="173.88732" cy="233.64258" r="18.52178" gradientUnits="userSpaceOnUse" id="color-64"><stop offset="0" stop-color="#ffffff"/><stop offset="1" stop-color="#1a1a1a"/></radialGradient><radialGradient cx="309.50329" cy="128.28458" r="18.52178" gradientUnits="userSpaceOnUse" id="color-65"><stop offset="0" stop-color="#ffffff"/><stop offset="1" stop-color="#1a1a1a"/></radialGradient></defs><g transform="translate(-139,-89.26451)"><g data-paper-data="{&quot;isPaintingLayer&quot;:true}" fill="none" fill-rule="nonzero" stroke-linejoin="miter" stroke-miterlimit="10" stroke-dasharray="" stroke-dashoffset="0" style="mix-blend-mode: normal"><g><path d="M312.70993,120.58036c16.01821,15.65006 25.79008,36.48888 25.79008,59.36674c0,48.60106 -44.09995,88 -98.5,88c-54.40005,0 -98.5,-39.39894 -98.5,-88c0,-48.60106 44.09995,-88 98.5,-88c28.36285,0 53.9258,10.70991 71.89851,27.85003" stroke="url(#color-1)" stroke-width="5" stroke-linecap="butt"/><g stroke-width="2.5" stroke-linecap="round"><path d="M157.6034,134.32046l68.15909,-42.12883" stroke="url(#color-2)"/><path d="M145.77005,156.24014l105.12674,-64.97837" stroke="url(#color-3)"/><path d="M143.39335,185.61447l139.7839,-86.3998" stroke="url(#color-4)"/><path d="M143.07851,172.46529l125.60314,-77.63474" stroke="url(#color-5)"/><path d="M143.23764,164.81841l116.67137,-72.11404" stroke="url(#color-6)"/><path d="M150.58792,146.23823l88.94564,-54.9769" stroke="url(#color-7)"/><path d="M142.25148,179.21555l133.88366,-82.75288" stroke="url(#color-8)"/><path d="M141.26532,193.61269l147.74652,-91.32146" stroke="url(#color-9)"/><path d="M143.12885,198.80262l151.06575,-93.37306" stroke="url(#color-10)"/><path d="M143.68994,204.35379l155.83318,-96.31979" stroke="url(#color-11)"/><path d="M146.22064,209.99697l158.08896,-97.71407" stroke="url(#color-12)"/><path d="M147.96927,216.02086l161.74694,-99.97506" stroke="url(#color-13)"/><path d="M151.02346,219.91733l161.2509,-99.66846" stroke="url(#color-14)"/><path d="M154.48173,225.0899l162.39415,-100.37509" stroke="url(#color-15)"/><path d="M157.02968,230.10819l164.49359,-101.67275" stroke="url(#color-16)"/><path d="M160.86139,234.50342l162.20637,-100.25904" stroke="url(#color-17)"/><path d="M165.67755,238.72297l161.05113,-99.54499" stroke="url(#color-18)"/><path d="M169.66389,242.91992l159.50767,-98.59098" stroke="url(#color-19)"/><path d="M174.55413,245.77325l156.93414,-97.0003" stroke="url(#color-20)"/><path d="M178.1253,250.65962l155.94518,-96.38902" stroke="url(#color-21)"/><path d="M183.58075,253.6074l151.04801,-93.3621" stroke="url(#color-22)"/><path d="M190.12793,256.1995l146.89364,-90.79431" stroke="url(#color-23)"/><path d="M194.8713,260.24764l141.44232,-87.42487" stroke="url(#color-24)"/><path d="M202.36224,262.14269l136.37244,-84.2912" stroke="url(#color-25)"/><path d="M208.4794,265.11429l128.13846,-79.20181" stroke="url(#color-26)"/><path d="M215.80972,266.34571l118.98959,-73.54693" stroke="url(#color-27)"/><path d="M223.14004,267.57712l111.21305,-68.74028" stroke="url(#color-28)"/><path d="M231.5453,268.57693l100.29123,-61.98956" stroke="url(#color-29)"/><path d="M242.54726,268.17714l85.28607,-52.71495" stroke="url(#color-30)"/><path d="M253.95625,266.64913l68.81811,-42.53617" stroke="url(#color-31)"/><path d="M266.9828,262.80088l42.74383,-26.41977" stroke="url(#color-32)"/><path d="M165.11116,124.54688l42.74383,-26.41977" stroke="url(#color-33)"/></g><g data-paper-data="{&quot;index&quot;:null}" stroke-width="2.5" stroke-linecap="round"><path d="M331.04828,158.2527l-54.14143,-59.06949" stroke="url(#color-34)"/><path d="M336.47793,182.56359l-83.50629,-91.10718" stroke="url(#color-35)"/><path d="M221.39927,92.14048l109.3814,119.33749" stroke="url(#color-36)"/><path d="M334.65784,198.90945l-99.35098,-108.39409" stroke="url(#color-37)"/><path d="M336.58326,191.50723l-92.56709,-100.99272" stroke="url(#color-38)"/><path d="M334.56016,171.62868l-70.65301,-77.08397" stroke="url(#color-39)"/><path d="M229.28196,91.79649l104.33692,113.83386" stroke="url(#color-40)"/><path d="M215.71285,94.34961l114.29069,124.69364" stroke="url(#color-41)"/><path d="M327.19506,223.96286l-118.16083,-128.91605" stroke="url(#color-42)"/><path d="M324.28728,228.2154l-120.37711,-131.33405" stroke="url(#color-43)"/><path d="M320.47181,233.12609l-122.70003,-133.86841" stroke="url(#color-44)"/><path d="M191.45756,101.31289l124.90182,136.2706" stroke="url(#color-45)"/><path d="M187.40353,104.17171l125.17357,136.5671" stroke="url(#color-46)"/><path d="M308.47558,245.46671l-126.63513,-138.1617" stroke="url(#color-47)"/><path d="M304.0218,248.90773l-126.99195,-138.55099" stroke="url(#color-48)"/><path d="M172.623,114.06352l126.56693,138.08728" stroke="url(#color-49)"/><path d="M294.14632,255.70771l-126.40989,-137.91595" stroke="url(#color-50)"/><path d="M164.75164,122.92074l123.94932,135.23141" stroke="url(#color-51)"/><path d="M283.71531,260.11l-123.28975,-134.51181" stroke="url(#color-52)"/><path d="M156.95205,130.73881l120.24289,131.18762" stroke="url(#color-53)"/><path d="M153.98754,135.46048l117.59579,128.29957" stroke="url(#color-54)"/><path d="M150.25283,139.74357l115.91396,126.46467" stroke="url(#color-55)"/><path d="M259.70862,267.9494l-111.10751,-121.22071" stroke="url(#color-56)"/><path d="M253.23029,269.09599l-108.32597,-118.186" stroke="url(#color-57)"/><path d="M144.75031,159.24286l100.45787,109.60173" stroke="url(#color-58)"/><path d="M144.62858,166.36419l94.51809,103.1213" stroke="url(#color-59)"/><path d="M231.69612,268.61093l-88.27938,-96.31473" stroke="url(#color-60)"/><path d="M223.46894,267.43392l-79.73713,-86.99495" stroke="url(#color-61)"/><path d="M212.91802,263.98023l-67.74607,-73.91245" stroke="url(#color-62)"/><path d="M202.35393,259.40858l-54.66492,-59.64062" stroke="url(#color-63)"/><path d="M190.86387,252.16437l-33.95309,-37.04356" stroke="url(#color-64)"/><path d="M292.52674,109.7628l33.95309,37.04356" stroke="url(#color-65)"/></g></g></g></g></svg>