<svg version="1.1" xmlns="http://www.w3.org/2000/svg" xmlns:xlink="http://www.w3.org/1999/xlink" width="247.91627" height="281.84801" viewBox="0,0,247.91627,281.84801"><g transform="translate(-222.45106,-32.4834)"><g data-paper-data="{&quot;isPaintingLayer&quot;:true}" fill="#ffffff" fill-rule="nonzero" stroke="none" stroke-width="0" stroke-linecap="butt" stroke-linejoin="miter" stroke-miterlimit="10" stroke-dasharray="" stroke-dashoffset="0" style="mix-blend-mode: normal"><path d="M251.49795,169.62933c-32.34827,-25.26941 -37.25915,-73.0373 -10.96874,-106.69258c26.2904,-33.65527 73.82643,-40.45336 106.17471,-15.18395c32.34827,25.26941 37.25915,73.0373 10.96874,106.69258c-26.2904,33.65527 -73.82643,40.45336 -106.17471,15.18395z"/><path d="M250.32693,270.32548c-32.34827,-25.26941 -37.25915,-73.0373 -10.96874,-106.69258c26.2904,-33.65527 73.82643,-40.45336 106.17471,-15.18395c32.34827,25.26941 37.25915,73.0373 10.96874,106.69258c-26.2904,33.65527 -73.82643,40.45336 -106.17471,15.18395z"/><path d="M347.28551,299.06201c-32.34827,-25.26941 -37.25915,-73.0373 -10.96874,-106.69258c26.2904,-33.65527 73.82643,-40.45336 106.17471,-15.18395c32.34827,25.26941 37.25915,73.0373 10.96874,106.69258c-26.2904,33.65527 -73.82643,40.45336 -106.17471,15.18395z"/></g></g></svg>