<svg version="1.1" xmlns="http://www.w3.org/2000/svg" xmlns:xlink="http://www.w3.org/1999/xlink" width="575.05631" height="372.37237" viewBox="0,0,575.05631,372.37237"><defs><radialGradient cx="236.99701" cy="175.49551" r="244.74474" gradientUnits="userSpaceOnUse" id="color-1"><stop offset="0" stop-color="#f2ad1b"/><stop offset="1" stop-color="#955200"/></radialGradient><radialGradient cx="241.27637" cy="144.61881" r="60.0625" gradientUnits="userSpaceOnUse" id="color-2"><stop offset="0" stop-color="#ff3e00"/><stop offset="1" stop-color="#ff3e00" stop-opacity="0"/></radialGradient><radialGradient cx="222.27718" cy="173.40002" r="17.2039" gradientUnits="userSpaceOnUse" id="color-3"><stop offset="0" stop-color="#b7b7b7"/><stop offset="1" stop-color="#ffffff"/></radialGradient><radialGradient cx="249.98417" cy="114.07978" r="11.44496" gradientUnits="userSpaceOnUse" id="color-4"><stop offset="0" stop-color="#b7b7b7"/><stop offset="1" stop-color="#ffffff"/></radialGradient><radialGradient cx="283.48197" cy="162.87282" r="16.22426" gradientUnits="userSpaceOnUse" id="color-5"><stop offset="0" stop-color="#b7b7b7"/><stop offset="1" stop-color="#ffffff"/></radialGradient><radialGradient cx="203.07276" cy="140.21068" r="14.31295" gradientUnits="userSpaceOnUse" id="color-6"><stop offset="0" stop-color="#b7b7b7"/><stop offset="1" stop-color="#ffffff"/></radialGradient></defs><g transform="translate(4.74475,6.18616)"><g data-paper-data="{&quot;isPaintingLayer&quot;:true}" fill-rule="nonzero" stroke="none" stroke-linecap="butt" stroke-linejoin="miter" stroke-miterlimit="10" stroke-dasharray="" stroke-dashoffset="0" style="mix-blend-mode: normal"><path d="M-4.74475,366.18621v-372.37237h489.48949v372.37237z" fill="url(#color-1)" stroke-width="0"/><path d="M568.81006,137.65766v-4.5045h1.5015v4.5045z" fill="#ce9317" stroke-width="0"/><path d="M123.63364,160.48049c0,-56.38943 52.099,-102.1021 116.36637,-102.1021c64.26737,0 116.36636,45.71267 116.36636,102.1021c0,56.38943 -52.09899,102.1021 -116.36636,102.1021c-64.26737,0 -116.36636,-45.71267 -116.36636,-102.1021z" fill="#000000" stroke-width="0"/><path d="M135.64565,157.4775c0,-50.56859 46.72103,-91.56253 104.35435,-91.56253c57.63332,0 104.35435,40.99394 104.35435,91.56253c0,50.56859 -46.72103,91.56253 -104.35435,91.56253c-57.63332,0 -104.35435,-40.99394 -104.35435,-91.56253z" fill="#6f6f6f" stroke-width="0"/><path d="M12.35266,331.74173l6.76402,-78.82186l127.35386,0.55299l-6.76402,78.82186z" fill="#000000" stroke-width="0"/><path d="M7.17235,222.35775l5.48049,-74.82815l107.62265,0.6461l-5.48049,74.82814z" fill="#000000" stroke-width="0"/><path d="M16.87501,116.0022l5.94065,-62.72566l107.61153,0.71266l-5.94065,62.72566z" fill="#000000" stroke-width="0"/><path d="M328.69368,341.12888l-6.03422,-95.01678l132.79116,1.64679l6.03422,95.01678z" data-paper-data="{&quot;index&quot;:null}" fill="#000000" stroke-width="0"/><path d="M366.02158,226.44794l-4.86063,-80.31181l106.96475,1.39193l4.86063,80.31181z" data-paper-data="{&quot;index&quot;:null}" fill="#000000" stroke-width="0"/><path d="M301.33887,144.61881c0,31.65464 -26.8909,57.31579 -60.0625,57.31579c-33.1716,0 -60.0625,-25.66115 -60.0625,-57.31579c0,-31.65464 26.8909,-57.31579 60.0625,-57.31579c33.1716,0 60.0625,25.66115 60.0625,57.31579z" fill="url(#color-2)" stroke-width="NaN"/><path d="M213.02735,164.91848c-0.0138,0.25638 -0.08956,0.44578 -0.08956,0.44578c-0.38228,0.89278 -0.52257,1.93436 -1.14683,2.67834c-1.2967,1.54538 -2.69998,0.67469 -3.32792,2.75271c-0.4997,1.65364 0.06415,4.33515 0.06415,6.10472c0,0.83333 0.05999,1.66883 0,2.5c-0.0193,0.26747 -0.44708,0.60378 -0.23595,0.76911c2.0381,1.59603 6.38229,-0.31411 8.64927,1.17141c0.90842,0.59528 2.15457,3.40088 2.57274,4.23653c1.38687,2.77145 2.30425,5.37284 3.06799,8.36587c2.1474,0.24671 6.10473,0.61841 7.87862,-0.9887c1.03572,-0.93834 0.96533,-2.66661 1.80327,-3.78512c0.46423,-0.61967 1.30836,-0.92878 1.67213,-1.61228c0.61818,-1.16152 0.35572,-2.60918 0.61561,-3.89903c0.65406,-3.24613 0.97631,-5.93085 0.97631,-9.2578c0,-1.21272 0.40993,-2.47857 0.05363,-3.63777c-0.35925,-1.1688 -2.26118,-1.96028 -2.81769,-2.63134c-0.35467,-0.42768 -0.23346,-1.11659 -0.54926,-1.57372c-1.22172,-1.76847 -3.18739,-3.56388 -4.89372,-4.85305c-0.23338,-0.58027 -0.16646,-1.41465 -0.70013,-1.7408c-0.52683,-0.32197 -1.22598,0.16017 -1.84284,0.18669c-2.08775,0.08975 -4.97943,-0.5245 -7.02165,-0.09515c-1.06697,0.22432 -0.64369,3.09213 -0.87626,3.43497c-0.5158,0.76037 -1.37913,1.28505 -2.23986,1.60654c-0.50088,0.18708 -1.13342,-0.35406 -1.61208,-0.17791zM209.5267,166.19576c0.0879,-0.40091 0.36661,-0.67963 0.36661,-0.67963l0.26585,-0.17513c0.48696,-0.83477 0.66997,-1.94892 1.46087,-2.5043c0.84569,-0.59385 2.65667,0.42697 3.05507,-0.52651c0.66896,-1.601 -0.346,-3.59688 2.12374,-4.56503c1.77747,-0.69678 6.08153,-0.15775 7.97835,-0.09515c1.05365,0.03477 2.23296,-0.32049 3.15716,0.18669c0.76167,0.41798 0.86658,1.50614 1.29987,2.2592c1.82793,1.3202 3.81397,3.2927 5.10628,5.14695c0.28509,0.40906 0.1305,1.04411 0.45074,1.42628c0.99213,1.18397 2.67496,1.90965 3.18231,3.36866c0.47762,1.37351 0.05363,2.90804 0.05363,4.36223c0,3.47176 -0.3407,6.35436 -1.02369,9.7422c-0.16094,0.79833 -0.68268,4.2382 -0.84885,4.56544c-0.40417,0.79589 -1.32719,1.20962 -1.8634,1.92325c-0.99045,1.31815 -0.87382,3.03635 -2.19673,4.21488c-2.86789,2.55489 -7.8847,1.81463 -11.12138,1.0113c-1.38817,-3.03696 -2.19126,-6.15001 -3.69594,-9.16199c-0.54196,-1.08486 -0.64174,-2.58215 -1.66333,-3.23561c-2.5869,-1.65472 -6.78325,0.83909 -9.35073,-1.82859c-0.51854,-0.53878 -0.1987,-1.48404 -0.23595,-2.23089c-0.1235,-2.47616 -0.73335,-7.14083 0.06415,-9.39528c0.78953,-2.23194 2.28054,-2.62913 3.43536,-3.80897z" fill="#b7b7b7" stroke-width="0.5"/><path d="M214.61316,165.05382c0.86073,-0.3215 1.73264,-0.85038 2.24844,-1.61076c0.23257,-0.34284 -0.18515,-3.21239 0.88182,-3.43671c2.04222,-0.42935 4.95417,0.18409 7.04192,0.09434c0.61685,-0.02652 1.32096,-0.50757 1.84778,-0.18561c0.53367,0.32615 0.47009,1.16157 0.70347,1.74183c1.70633,1.28917 3.69051,3.09607 4.91223,4.86454c0.3158,0.45713 0.19821,1.14999 0.55288,1.57767c0.5565,0.67107 2.46527,1.47346 2.82452,2.64225c0.3563,1.1592 -0.04997,2.43646 -0.04997,3.64918c0,3.32695 -0.32715,6.0445 -0.98121,9.29063c-0.25989,1.28985 -0.00414,2.74721 -0.62232,3.90873c-0.36377,0.6835 -1.21311,0.99771 -1.67734,1.61738c-0.83794,1.11851 -0.77636,2.85274 -1.81208,3.79108c-1.77389,1.60711 -5.75292,1.24123 -7.90032,0.99452c-0.76373,-2.99303 -1.69673,-5.59635 -3.08359,-8.36779c-0.41817,-0.83565 -1.6884,-3.65671 -2.59683,-4.25199c-2.26698,-1.48552 -6.62198,0.40328 -8.66008,-1.19275c-0.21113,-0.16534 0.21613,-0.50414 0.23544,-0.77161c0.05999,-0.83117 -0.00077,-1.67582 -0.00077,-2.50915c0,-1.76957 -0.55927,-4.47156 -0.05958,-6.12519c0.62793,-2.07802 2.03911,-1.21948 3.33581,-2.76486c0.62425,-0.74397 0.77142,-1.79202 1.1537,-2.6848c0,0 0.07667,-0.19009 0.09047,-0.44647c0.47866,-0.17615 1.11473,0.36261 1.6156,0.17552z" data-paper-data="{&quot;noHover&quot;:false,&quot;origItem&quot;:[&quot;Path&quot;,{&quot;applyMatrix&quot;:true,&quot;segments&quot;:[[[213.02732,164.91847],[0.47866,-0.17615],[-0.0138,0.25638]],[[212.93776,165.36425],[0,0],[-0.38228,0.89278]],[[211.79093,168.04258],[0.62425,-0.74397],[-1.2967,1.54538]],[[208.46302,170.79529],[0.62793,-2.07802],[-0.4997,1.65364]],[[208.52716,176.90001],[0,-1.76957],[0,0.83333]],[[208.52716,179.40001],[0.05999,-0.83117],[-0.0193,0.26747]],[[208.29121,180.16912],[-0.21113,-0.16534],[2.0381,1.59603]],[[216.94049,181.34053],[-2.26698,-1.48552],[0.90842,0.59528]],[[219.51323,185.57706],[-0.41817,-0.83565],[1.38687,2.77145]],[[222.58122,193.94293],[-0.76373,-2.99303],[2.1474,0.24671]],[[230.45984,192.95424],[-1.77389,1.60711],[1.03572,-0.93834]],[[232.26311,189.16912],[-0.83794,1.11851],[0.46423,-0.61967]],[[233.93524,187.55684],[-0.36377,0.6835],[0.61818,-1.16152]],[[234.55085,183.65781],[-0.25989,1.28985],[0.65406,-3.24613]],[[235.52716,174.40001],[0,3.32695],[0,-1.21272]],[[235.5808,170.76224],[0.3563,1.1592],[-0.35925,-1.1688]],[[232.76311,168.1309],[0.5565,0.67107],[-0.35467,-0.42768]],[[232.21385,166.55717],[0.3158,0.45713],[-1.22172,-1.76847]],[[227.32013,161.70412],[1.70633,1.28917],[-0.23338,-0.58027]],[[226.62,159.96332],[0.53367,0.32615],[-0.52683,-0.32197]],[[224.77716,160.15001],[0.61685,-0.02652],[-2.08775,0.08975]],[[217.75552,160.05486],[2.04222,-0.42935],[-1.06697,0.22432]],[[216.87925,163.48983],[0.23257,-0.34284],[-0.5158,0.76037]],[[214.63939,165.09637],[0.86073,-0.3215],[-0.50088,0.18708]]],&quot;closed&quot;:true}]}" fill="url(#color-3)" stroke-width="0.5"/><g stroke-width="0.5"><path d="M255.36889,127.11119c0.31405,-0.5683 0.71538,-1.11319 1.15426,-1.92325c0.21863,-0.40353 1.03358,-2.60106 1.26108,-2.86243c0.31278,-0.35933 0.95266,-0.31905 1.25158,-0.68999c0.60901,-0.75577 0.6328,-3.01861 0.6861,-3.93422c0.13487,-2.31678 1.1304,-6.15893 -0.63937,-8.08164c-0.88066,-0.95676 -2.49264,-1.738 -3.55496,-2.49069c-2.74007,-2.78508 -9.75983,-3.22438 -12.74132,-0.46542c-0.89778,0.83077 -1.56697,2.60649 -2.30257,3.62018c-1.4181,1.95419 -1.30209,4.32695 -1.46658,6.67992c-0.05272,0.75411 -0.26081,1.70855 0.26741,2.39832c0.27014,0.35276 0.71682,0.5252 1.07523,0.78781c1.71433,1.94523 4.21646,1.55963 6.48456,2.58819c1.4315,0.64917 2.57201,1.86895 3.63538,2.98348c0.6203,0.65014 0.98337,1.61057 1.78171,2.02302c0.7408,0.38271 1.79854,-0.36416 2.39306,-0.49331c0.23596,-0.05126 0.47509,-0.09544 0.71445,-0.13998zM254.75363,129.03488c-1.1695,0.28408 -2.34568,0.39624 -3.12486,0.04763c-0.53548,-0.23957 -0.8208,-0.83841 -1.2246,-1.26394c-1.2315,-1.29775 -2.483,-2.98155 -4.16675,-3.73069c-2.48855,-1.10721 -4.91529,-0.73801 -6.87978,-2.84892c-0.42482,-0.33751 -0.96686,-0.56558 -1.27447,-1.01252c-0.81415,-1.18294 -0.62033,-2.05888 -0.54305,-3.35793c0.15865,-2.66678 0.15552,-5.21972 1.74153,-7.44829c0.78053,-1.09676 1.53227,-2.94805 2.49938,-3.84298c3.52277,-3.25983 11.39365,-2.83575 14.69995,0.41965c1.11844,0.78636 2.79558,1.6153 3.69987,2.63065c2.17779,2.44524 1.39897,7.71849 0.92279,10.71142c-0.03964,0.24917 -0.80998,3.08442 -0.89389,3.19793c-0.3034,0.41043 -0.97605,0.39797 -1.32116,0.77402c-0.49597,0.54043 -0.59567,1.32415 -0.8326,2.03264c0.15834,-0.05988 0.36047,-0.06513 0.602,0.07131c0.64434,0.36397 0.28037,1.00831 0.28037,1.00831l-0.99666,1.48563c-0.42035,0.19302 -0.98986,0.43138 -1.62585,0.65592c-0.06819,0.27064 -0.11068,0.57966 -0.12119,0.95106c0,0 -0.03641,0.73913 -0.77555,0.70272c-0.73913,-0.03641 -0.70272,-0.77555 -0.70272,-0.77555c0.00935,-0.14317 0.02182,-0.27889 0.03723,-0.40808z" fill="#b7b7b7"/><path d="M254.66702,127.27796c-0.59451,0.12915 -1.6579,0.87801 -2.39871,0.49529c-0.79834,-0.41244 -1.16529,-1.37221 -1.78559,-2.02235c-1.06337,-1.11453 -2.21816,-2.33637 -3.64966,-2.98554c-2.2681,-1.02856 -4.78623,-0.65876 -6.50056,-2.604c-0.35841,-0.2626 -0.80618,-0.43803 -1.07632,-0.7908c-0.52822,-0.68977 -0.32134,-1.65083 -0.26862,-2.40494c0.16449,-2.35297 0.05334,-4.74406 1.47144,-6.69825c0.7356,-1.01369 1.4125,-2.79731 2.31027,-3.62808c2.9815,-2.75896 10.03452,-2.32011 12.7746,0.46497c1.06233,0.75269 2.68233,1.54177 3.56299,2.49853c1.76978,1.92271 0.77923,5.78586 0.64436,8.10264c-0.0533,0.9156 -0.08062,3.18886 -0.68963,3.94462c-0.29891,0.37094 -0.9407,0.33361 -1.25348,0.69294c-0.22751,0.26137 -1.04803,2.46467 -1.26666,2.86821c-0.43888,0.81006 -0.84443,1.35772 -1.15848,1.92602c-0.23936,0.04454 -0.48,0.08948 -0.71596,0.14074z" data-paper-data="{&quot;noHover&quot;:false,&quot;origItem&quot;:[&quot;Path&quot;,{&quot;applyMatrix&quot;:true,&quot;segments&quot;:[[[255.36889,127.11118],[-0.23936,0.04454],[0.31405,-0.5683]],[[256.52315,125.18793],[-0.43888,0.81006],[0.21863,-0.40353]],[[257.78423,122.3255],[-0.22751,0.26137],[0.31278,-0.35933]],[[259.03581,121.63551],[-0.29891,0.37094],[0.60901,-0.75577]],[[259.72191,117.7013],[-0.0533,0.9156],[0.13487,-2.31678]],[[259.08254,109.61965],[1.76978,1.92271],[-0.88066,-0.95676]],[[255.52758,107.12896],[1.06233,0.75269],[-2.74007,-2.78508]],[[242.78625,106.66354],[2.9815,-2.75896],[-0.89778,0.83077]],[[240.48368,110.28372],[0.7356,-1.01369],[-1.4181,1.95419]],[[239.0171,116.96364],[0.16449,-2.35297],[-0.05272,0.75411]],[[239.28451,119.36196],[-0.52822,-0.68977],[0.27014,0.35276]],[[240.35974,120.14977],[-0.35841,-0.2626],[1.71433,1.94523]],[[246.8443,122.73796],[-2.2681,-1.02856],[1.4315,0.64917]],[[250.47968,125.72145],[-1.06337,-1.11453],[0.6203,0.65014]],[[252.26139,127.74446],[-0.79834,-0.41244],[0.7408,0.38271]],[[254.65445,127.25115],[-0.59451,0.12915],[0.23596,-0.05126]]],&quot;closed&quot;:true}]}" fill="url(#color-4)"/></g><path d="M263.76851,165.2175c0.00746,-0.8624 -0.69516,-2.567 0.0658,-3.47149c0.82007,-0.97474 2.26189,-1.18176 3.35489,-1.83596c1.87372,-1.12148 3.92442,-2.33578 5.26992,-4.11186c2.13185,-2.81406 2.40852,-6.41141 5.63449,-8.17298c0.47523,-0.41337 0.85791,-0.97757 1.43017,-1.24069c1.11899,-0.51448 2.38303,0.07229 3.40918,0.38116c3.2018,0.96372 6.54255,1.55825 8.80071,4.13046c1.17136,1.33426 3.42563,2.82828 4.29333,4.32953c2.88163,4.98561 0.06784,14.59995 -4.64029,17.51693c-1.37311,1.23327 -2.97103,3.2262 -4.56945,4.14443c-3.21218,1.84528 -8.24349,-0.73313 -11.40451,-1.64456c-1.24925,-0.3602 -4.38375,-1.10932 -5.23812,-2.18784c-0.41934,-0.52936 -0.16689,-1.40503 -0.56584,-1.94992c-0.29018,-0.39634 -3.07976,-2.22028 -3.56928,-2.64884c-0.98266,-0.86029 -1.61298,-1.59239 -2.30044,-2.20442c0.01332,-0.34488 0.02648,-0.69166 0.02945,-1.03394z" data-paper-data="{&quot;noHover&quot;:false,&quot;origItem&quot;:[&quot;Path&quot;,{&quot;applyMatrix&quot;:true,&quot;segments&quot;:[[[1052.70172,448.45669],[0.80022,-0.19006],[-0.96517,1.96972]],[[1049.12676,455.13788],[1.34621,-2.8062],[-0.67062,1.39793]],[[1045.34748,465.00575],[0.72419,-0.91971],[-0.99563,1.26443]],[[1041.23916,467.54193],[0.94692,-1.30131],[-1.92926,2.6513]],[[1039.57811,480.93061],[0.02765,-3.09824],[-0.06996,7.83957]],[[1043.07881,508.09302],[-6.29109,-6.19334],[3.13051,3.08187]],[[1055.48781,515.90606],[-3.70957,-2.36312],[9.70836,8.94181]],[[1098.55632,515.35855],[-9.60142,9.80473],[2.89114,-2.95236]],[[1105.72377,502.76078],[-2.31354,3.5426],[4.46006,-6.82947]],[[1109.56188,479.97795],[-0.1639,7.96662],[0.05253,-2.55324]],[[1108.26094,471.9301],[1.89695,2.2396],[-0.97013,-1.14537]],[[1104.50199,469.45065],[1.25298,0.82648],[-6.10774,-6.27854]],[[1082.1919,461.79558],[7.82387,3.09352],[-4.93801,-1.95246]],[[1069.42967,452.33314],[3.77323,3.58384],[-2.20105,-2.09057]],[[1063.08163,445.80334],[2.76228,1.25894],[-2.56319,-1.1682]],[[1055.0891,447.86563],[1.98451,-0.53461],[-0.78765,0.21218]]],&quot;closed&quot;:true}]}" fill="url(#color-5)" stroke-width="0.5"/><g stroke-width="0.5"><path d="M195.54493,124.26483c-0.3573,0.72917 -0.82506,1.43447 -1.32341,2.4733c-0.24826,0.5175 -1.13096,3.31252 -1.39905,3.65298c-0.36857,0.46808 -1.17032,0.45714 -1.52086,0.93886c-0.71419,0.98148 -0.60467,3.80942 -0.61491,4.95635c-0.0259,2.90213 -1.03298,7.76253 1.29592,10.05523c1.15888,1.14088 3.22043,2.0175 4.59368,2.89231c3.59393,3.31016 12.38917,3.42693 15.94351,-0.20268c1.07027,-1.09293 1.79687,-3.35213 2.65331,-4.66356c1.65107,-2.5282 1.36015,-5.48481 1.42082,-8.43396c0.01945,-0.94518 0.22064,-2.15015 -0.48159,-2.97922c-0.35913,-0.424 -0.92768,-0.61191 -1.39152,-0.91787c-2.26102,-2.32425 -5.36265,-1.68864 -8.25896,-2.83382c-1.828,-0.72278 -3.32763,-2.1762 -4.72444,-3.50289c-0.8148,-0.77391 -1.32741,-1.95122 -2.34998,-2.41726c-0.94887,-0.43245 -2.22411,0.56553 -2.95875,0.76344c-0.29158,0.07855 -0.58755,0.14845 -0.88378,0.21881zM196.19508,121.82414c1.44332,-0.4268 2.90554,-0.63927 3.90026,-0.25179c0.6836,0.26629 1.07683,0.99673 1.60739,1.5034c1.61808,1.54521 3.28493,3.5714 5.43415,4.40351c3.17651,1.22985 6.18498,0.61938 8.76867,3.13517c0.5514,0.39543 1.24249,0.64695 1.65421,1.1863c1.08973,1.42748 0.90153,2.53352 0.88493,4.16089c-0.03407,3.34077 0.12693,6.52939 -1.71698,9.41064c-0.90746,1.41796 -1.73251,3.77662 -2.88544,4.95396c-4.19961,4.28854 -14.05702,4.24317 -18.38715,0.38038c-1.44541,-0.9134 -3.59129,-1.84561 -4.78329,-3.05821c-2.87069,-2.92028 -2.22237,-9.55488 -1.81176,-13.32258c0.03418,-0.31368 0.82193,-3.90251 0.91975,-4.04946c0.35371,-0.53133 1.19468,-0.55716 1.6026,-1.0481c0.58625,-0.70556 0.66255,-1.69061 0.9149,-2.59016c-0.19409,0.08454 -0.44625,0.10354 -0.75634,-0.05202c-0.82722,-0.41498 -0.41225,-1.2422 -0.41225,-1.2422l1.15348,-1.917c0.51317,-0.26696 1.20986,-0.59974 1.99045,-0.91934c0.06851,-0.34225 0.10257,-0.73084 0.09286,-1.19541c0,0 0,-0.92547 0.92548,-0.92547c0.92547,0 0.92547,0.92547 0.92547,0.92547c-0.00287,0.17941 -0.01009,0.34969 -0.02139,0.51201z" fill="#b7b7b7"/><path d="M196.41139,124.01332c0.73465,-0.19791 2.01682,-1.19871 2.96569,-0.76626c1.02257,0.46605 1.53997,1.64229 2.35477,2.41619c1.39681,1.3267 2.91441,2.78181 4.74241,3.50459c2.89631,1.14519 6.0189,0.52833 8.27992,2.85258c0.46384,0.30596 1.03393,0.49753 1.39306,0.92153c0.70223,0.82907 0.50296,2.04224 0.48351,2.98742c-0.06068,2.94916 0.2253,5.92897 -1.42577,8.45716c-0.85645,1.31143 -1.59219,3.58097 -2.66245,4.6739c-3.55434,3.62961 -12.3911,3.51546 -15.98504,0.2053c-1.37324,-0.8748 -3.4453,-1.76073 -4.60418,-2.90161c-2.3289,-2.29271 -1.32934,-7.17902 -1.30344,-10.08115c0.01024,-1.14694 -0.09552,-3.98808 0.61867,-4.96956c0.35054,-0.48173 1.15448,-0.47459 1.52305,-0.94267c0.26809,-0.34046 1.15741,-3.14305 1.40567,-3.66055c0.49835,-1.03883 0.97121,-1.74786 1.32851,-2.47703c0.29623,-0.07036 0.59405,-0.1413 0.88563,-0.21985z" data-paper-data="{&quot;noHover&quot;:false,&quot;origItem&quot;:[&quot;Path&quot;,{&quot;applyMatrix&quot;:true,&quot;segments&quot;:[[[1049.87589,446.9025],[0.6815,-0.16186],[-0.82199,1.6775]],[[1046.8313,452.59249],[1.14649,-2.38989],[-0.57113,1.19054]],[[1043.6127,460.99642],[0.61675,-0.78326],[-0.84792,1.07684]],[[1040.11387,463.15634],[0.80644,-1.10825],[-1.64304,2.25797]],[[1038.69924,474.55875],[0.02355,-2.6386],[-0.05958,6.67653]],[[1041.68059,497.69147],[-5.35778,-5.27452],[2.66608,2.62466]],[[1052.24865,504.34541],[-3.15924,-2.01254],[8.26808,7.61524]],[[1088.92774,503.87913],[-8.177,8.35015],[2.46222,-2.51436]],[[1095.03186,493.1503],[-1.97031,3.01704],[3.79839,-5.81628]],[[1098.30056,473.74741],[-0.13959,6.78473],[0.04474,-2.17445]],[[1097.19263,466.89351],[1.61553,1.90734],[-0.82621,-0.97545]],[[1093.99134,464.78189],[1.0671,0.70387],[-5.20163,-5.34709]],[[1074.99106,458.26249],[6.66316,2.63458],[-4.20543,-1.66281]],[[1064.12217,450.20385],[3.21346,3.05216],[-1.87451,-1.78042]],[[1058.71589,444.64278],[2.35248,1.07217],[-2.18293,-0.99489]],[[1051.90909,446.39912],[1.6901,-0.4553],[-0.6708,0.18071]]],&quot;closed&quot;:true}]}" fill="url(#color-6)"/></g></g></g></svg>