<svg version="1.1" xmlns="http://www.w3.org/2000/svg" xmlns:xlink="http://www.w3.org/1999/xlink" width="254.24926" height="266.26125" viewBox="0,0,254.24926,266.26125"><g transform="translate(-162.67267,-65.63063)"><g data-paper-data="{&quot;isPaintingLayer&quot;:true}" fill="#ffffff" fill-rule="nonzero" stroke="none" stroke-width="0" stroke-linecap="butt" stroke-linejoin="miter" stroke-miterlimit="10" stroke-dasharray="" stroke-dashoffset="0" style="mix-blend-mode: normal"><path d="M317.32733,180c0,41.04819 -34.62062,74.32432 -77.32733,74.32432c-42.7067,0 -77.32733,-33.27613 -77.32733,-74.32432c0,-41.04819 34.62062,-74.32432 77.32733,-74.32432c42.7067,0 77.32733,33.27613 77.32733,74.32432z"/><path d="M416.92193,139.95495c0,41.04819 -34.62062,74.32432 -77.32733,74.32432c-42.7067,0 -77.32733,-33.27613 -77.32733,-74.32432c0,-41.04819 34.62062,-74.32432 77.32733,-74.32432c42.7067,0 77.32733,33.27613 77.32733,74.32432z"/><path d="M385.88589,257.56756c0,41.04819 -34.62062,74.32432 -77.32733,74.32432c-42.7067,0 -77.32733,-33.27613 -77.32733,-74.32432c0,-41.04819 34.62062,-74.32432 77.32733,-74.32432c42.7067,0 77.32733,33.27613 77.32733,74.32432z"/></g></g></svg>