<svg version="1.1" xmlns="http://www.w3.org/2000/svg" xmlns:xlink="http://www.w3.org/1999/xlink" width="168.59911" height="279.65695" viewBox="0,0,168.59911,279.65695"><g transform="translate(-130.3884,4.60695)"><g data-paper-data="{&quot;isPaintingLayer&quot;:true}" fill-rule="nonzero" stroke-linejoin="miter" stroke-miterlimit="10" stroke-dasharray="" stroke-dashoffset="0" style="mix-blend-mode: normal"><path d="M266.98751,273.8h-104l-31,-113l163,-15.43195c0,5.76397 0,12.16813 0,17.92738c-1.41451,-0.06533 -2.67044,-0.29963 -3.53651,-0.84643c-0.82123,-0.51848 -1.2853,-1.45635 -1.92796,-2.18453c0,0 -3.53553,-3.53554 -7.07106,0c-3.53553,3.53554 0,7.07107 0,7.07107c1.35735,1.27182 2.44002,2.92304 4.07204,3.81546c2.48988,1.36153 5.37286,1.78746 8.32209,1.86643z" fill="#ffffff" stroke="#ffffff" stroke-width="2.5" stroke-linecap="round"/><path d="M298.98751,150.86904c0,33.28568 -37.60808,60.26906 -84,60.26906c-46.39192,0 -84,-26.98338 -84,-60.26906c0,-33.28568 37.60808,-60.26906 84,-60.26906c46.39192,0 84,26.98338 84,60.26906z" fill="#ffffff" stroke="none" stroke-width="0" stroke-linecap="butt"/><path d="M212.9016,85.06084c1.26131,4.43529 -0.68772,5.75459 -2.34889,9.63603c-0.97605,2.28061 -2.28434,4.51321 -2.59755,6.97405c-0.36035,2.83133 0.05704,5.7083 0.03859,8.56242c-0.00756,1.16999 -0.29632,2.36623 -0.04855,3.50971c1.18295,5.45936 9.88194,10.82852 6.81252,17.05068c-1.44475,2.92872 -5.91576,4.43085 -8.44196,5.81464c-1.07098,0.58666 -2.60784,0.80964 -3.12148,1.9175c-0.72039,1.55375 0.96486,3.83457 -0.1487,5.13576c-4.22809,4.94052 -10.29742,2.25622 -14.91173,0.41918c-3.84538,-1.28086 -11.71948,-1.94675 -9.33831,-8.53822c0.59914,-1.65851 3.67763,-1.12903 4.58319,-2.64217c0.24292,-0.4059 0.06715,-0.9442 0.12718,-1.41342c0.08655,-0.67645 0.73889,-1.48982 0.31233,-2.02191c-1.16412,-1.45213 -5.06482,-1.6938 -6.39633,-2.7877c-0.01002,-0.00823 -3.77178,-5.74698 -3.86623,-5.89102l0.19544,-1.42316c-2.60242,-4.94392 -5.9406,-9.36325 -9.22126,-13.89087c-0.83353,-1.15034 -2.55159,-2.01816 -2.51797,-3.43835c0.05197,-2.19548 1.70056,-4.05704 2.74119,-5.99092c2.10446,-3.91085 5.42821,-7.0236 7.95808,-10.68038c5.57966,-0.28221 11.15842,-0.72767 16.79475,-1.40958c6.57842,-0.7959 13.05904,-2.3419 19.65478,-2.97847c0.44013,-0.04248 0.88083,-0.08277 1.32206,-0.12103c1.08096,1.2428 1.96357,2.60632 2.41885,4.20725z" fill="#66ff52" stroke="none" stroke-width="0.5" stroke-linecap="butt"/><path d="M178.54477,71.40393c-2.29416,0.25699 -4.58568,0.54188 -6.87788,0.81954c-0.02307,-0.16008 -0.04202,-0.33255 -0.05782,-0.51475c2.31089,-0.11736 4.62226,-0.21443 6.93571,-0.30479z" fill="#66ff52" stroke="none" stroke-width="0.5" stroke-linecap="butt"/><path d="M164.74836,-2.10695c0,-1.38071 1.11929,-2.5 2.5,-2.5c0.31526,0 0.61689,0.05836 0.89468,0.16486l4.65462,1.66046c1.11606,0.40259 2.25261,0.84078 3.38782,1.32077c-1.51143,0.08167 -3.02341,0.17212 -4.53607,0.27231c-0.99642,0.06599 -3.6289,0.26102 -6.47703,0.47504c-0.26777,-0.39815 -0.42403,-0.87754 -0.42403,-1.39343z" fill="#66ff52" stroke="none" stroke-width="0.5" stroke-linecap="butt"/><path d="M194.67318,-2.32663c1.21552,-0.83196 4.45649,-0.57179 7.04782,0.15659c-2.45429,0.01958 -4.90793,0.04854 -7.3615,0.0909c0.09797,-0.08846 0.20224,-0.17121 0.31368,-0.24749z" fill="#66ff52" stroke="none" stroke-width="0.5" stroke-linecap="butt"/><path d="" fill="#66ff52" stroke="none" stroke-width="0.5" stroke-linecap="butt"/><path d="" fill="#66ff52" stroke="none" stroke-width="0.5" stroke-linecap="butt"/><path d="M233.20465,15.63139c0.14029,0.11182 0.28684,0.22705 0.43764,0.34551c-0.25013,-0.01311 -0.50499,-0.0253 -0.76372,-0.03662c0.09304,-0.11515 0.18108,-0.2345 0.26378,-0.35774c0.02092,0.01614 0.04169,0.03242 0.06231,0.04885z" fill="#66ff52" stroke="none" stroke-width="0.5" stroke-linecap="butt"/><path d="M284.7326,144.3c0,17.94925 -31.95458,32.5 -71.37255,32.5c-39.41797,0 -71.37254,-14.55075 -71.37254,-32.5c0,-17.94925 31.95458,-32.5 71.37255,-32.5c39.41797,0 71.37255,14.55075 71.37255,32.5z" fill="#66ff52" stroke="none" stroke-width="0" stroke-linecap="butt"/><path d="" fill="#66ff52" stroke="none" stroke-width="0" stroke-linecap="butt"/><g stroke="none" stroke-width="0.5" stroke-linecap="butt"><path d="M144.70714,130.96355c3.15927,-8.29882 2.05027,-17.54221 2.05027,-26.16356c0,-4.98508 -0.44467,-10.21115 0.00695,-15.17722c0.17521,-1.92663 0.03105,-4.00093 0.98501,-5.7305c1.02623,-1.86057 2.40446,-4.40609 4.69491,-4.56735c2.65158,-0.18669 4.79599,2.18918 6.81428,3.75702c0.70073,0.54434 0.13454,2.10066 1.02231,2.33055c1.93362,0.50071 4.44798,-4.0553 4.88994,-4.82521l-0.00182,-0.00087l2.55782,-4.37279c0.45458,-0.81627 1.3889,-1.37615 2.46768,-1.37615c1.41266,0 2.5776,0.96008 2.74195,2.19873l0.73779,4.91952c0.33743,1.18157 0.54185,2.52703 0.6949,4.67573c0.12246,1.71927 0.05499,3.44625 0.00628,5.16853c-0.02466,0.87202 -0.71541,2.62829 0.24796,2.60727c5.62323,-0.1227 6.6794,-8.46744 9.96026,-11.59593c1.18818,-1.133 2.65751,-2.48278 4.38326,-2.49426c2.56459,-0.01708 5.02678,1.2074 7.21578,2.41704c1.843,1.01844 1.53542,4.052 3.44378,4.9665c0.50889,0.24386 7.30418,0.6536 8.06022,0.6235c1.78048,-0.07089 4.07321,-1.71231 5.31169,-0.55222c1.69663,1.58922 0.51149,4.40981 1.09712,6.55534c0.85689,3.13938 2.82328,5.51232 5.00797,7.9728c6.37893,-4.22333 10.4548,-12.16554 15.41751,-17.78599c1.11255,-1.26001 1.49675,-3.31485 3.15431,-3.90692c7.77123,-2.77585 7.24631,1.69069 7.4022,6.19288c0.02979,0.86015 -0.94034,1.76576 -0.52131,2.53823c0.28643,0.52803 1.33996,-0.11989 1.94702,0.09006c0.56493,0.1954 0.9359,1.42973 1.38391,1.06201c0.83179,-0.68273 0.67094,-1.9432 0.90156,-2.93792c0.91571,-3.94974 1.01969,-11.54418 8.16052,-11.24022c1.93413,0.08233 3.53081,1.85095 4.42652,3.40487c0.99298,1.72267 0.59951,3.84823 0.86567,5.77631c0.39149,2.8359 1.10332,5.63481 1.91303,8.39719c0.48435,1.65237 0.8347,3.64348 2.34645,4.66813c0.6153,-4.57715 3.41986,-9.70786 7.95602,-12.33617c1.6715,-0.96849 4.24088,-2.82025 5.68838,-1.59124c2.05937,1.74852 1.45295,5.01498 1.35232,7.56921c-0.00629,0.15971 -3.47216,9.59826 -3.69097,9.91387c-1.85998,2.68282 -5.31366,4.42779 -6.64212,7.35802c-1.01637,2.24186 -0.60385,5.01887 -0.67844,7.32765c-0.04249,1.31499 -0.87718,2.74826 -0.26074,3.93961c1.17557,2.27198 5.14038,2.52827 6.46644,4.73132c1.89592,3.14979 1.5199,5.98392 1.52733,9.32907c0.00622,2.80016 0.58894,5.65796 -0.03566,8.40045c-1.09121,4.79127 -3.92766,8.40363 -6.74678,12.42303c-0.46699,3.76082 -0.57995,7.43837 -0.95059,11.17651c-0.00429,0.04325 -0.01184,0.08722 -0.02219,0.13177c-6.86104,2.31448 -13.96145,4.42472 -17.62881,5.21406c-3.87684,0.83442 -7.92901,0.05897 -10.33897,2.45044c-0.02967,0.0241 -0.05907,0.04855 -0.08817,0.07331c-10.19593,-0.14675 -20.39687,0.07685 -30.58991,0.36514c-3.93789,0.11138 -7.80904,0.43312 -11.67068,0.76529c-6.10808,0 -12.21616,0 -18.32424,0c-2.64256,-0.67273 -5.22758,-1.51534 -8.22461,-1.96255c-2.5712,-0.38366 -4.78653,-0.55148 -7.06601,-1.06678c-0.96077,-1.06206 -2.59835,-1.37788 -4.39911,-1.48657c-0.03492,-0.01608 -0.06991,-0.03229 -0.10496,-0.04864c-2.39127,-1.11544 -4.50715,-2.75723 -6.8668,-3.93809c-1.88674,-0.9442 -3.90177,-1.67017 -5.81548,-2.56493c-0.06488,-0.19642 -0.14057,-0.39662 -0.22755,-0.60047c-1.52725,-3.57909 -4.4161,-6.52761 -7.24448,-9.25493c0.00838,-0.04366 0.01615,-0.08749 0.02325,-0.13151c0.93896,-5.81538 0.11468,-12.72035 0.09074,-18.68478c1.06572,-1.59547 2.02302,-3.26872 2.7191,-5.09721zM215.65913,153.55322c-0.69202,0.69774 -1.20144,1.47495 -1.46828,2.41302c0.51396,-0.79722 1.00808,-1.60007 1.46828,-2.41302z" fill="#66ff52"/><path d="" fill="#66ff52"/><path d="" fill="#66ff52"/><path d="" fill="#66ff52"/><path d="" fill="#66ff52"/><path d="M144.39867,135.96355c1.53538,-8.29882 0.99642,-17.54221 0.99642,-26.16356c0,-4.98508 -0.2161,-10.21115 0.00338,-15.17722c0.08515,-1.92663 0.01508,-4.00093 0.47871,-5.7305c0.49874,-1.86057 1.16855,-4.40609 2.2817,-4.56735c1.28866,-0.18669 2.33082,2.18918 3.3117,3.75702c0.34055,0.54434 0.06538,2.10066 0.49684,2.33055c0.93973,0.50071 2.16169,-4.0553 2.37648,-4.82521l-0.00088,-0.00087l1.24308,-4.37279c0.22092,-0.81627 0.675,-1.37615 1.19928,-1.37615c0.68654,0 1.2527,0.96008 1.33257,2.19873l0.35855,4.91952c0.16399,1.18157 0.26334,2.52703 0.33772,4.67573c0.05951,1.71927 0.02672,3.44625 0.00305,5.16853c-0.01199,0.87202 -0.34767,2.62829 0.12052,2.60727c2.73286,-0.1227 3.24615,-8.46744 4.84062,-11.59593c0.57745,-1.133 1.29153,-2.48278 2.13023,-2.49426c1.24638,-0.01708 2.44299,1.2074 3.50683,2.41704c0.89568,1.01844 0.74621,4.052 1.67366,4.9665c0.24732,0.24386 3.54978,0.6536 3.91721,0.6235c0.86531,-0.07089 1.97955,-1.71231 2.58145,-0.55222c0.82455,1.58922 0.24859,4.40981 0.5332,6.55534c0.41645,3.13938 1.3721,5.51232 2.43384,7.9728c3.10012,-4.22333 5.08098,-12.16554 7.49282,-17.78599c0.54069,-1.26001 0.72741,-3.31485 1.53297,-3.90692c3.77677,-2.77585 3.52167,1.69069 3.59743,6.19288c0.01447,0.86015 -0.457,1.76576 -0.25335,2.53823c0.13921,0.52803 0.65122,-0.11989 0.94625,0.09006c0.27455,0.1954 0.45484,1.42973 0.67257,1.06201c0.40425,-0.68273 0.32606,-1.9432 0.43814,-2.93792c0.44503,-3.94974 0.49556,-11.54418 3.96596,-11.24022c0.93998,0.08233 1.71595,1.85095 2.15126,3.40487c0.48258,1.72267 0.29136,3.84823 0.42071,5.77631c0.19026,2.8359 0.53621,5.63481 0.92972,8.39719c0.23539,1.65237 0.40566,3.64348 1.14036,4.66813c0.29903,-4.57715 1.66204,-9.70786 3.86658,-12.33617c0.81234,-0.96849 2.06105,-2.82025 2.76452,-1.59124c1.00083,1.74852 0.70612,5.01498 0.65722,7.56921c-0.00306,0.15971 -1.68744,9.59826 -1.79378,9.91387c-0.90394,2.68282 -2.58241,4.42779 -3.22804,7.35802c-0.49395,2.24186 -0.29347,5.01887 -0.32972,7.32765c-0.02065,1.31499 -0.4263,2.74826 -0.12672,3.93961c0.57132,2.27198 2.4982,2.52828 3.14266,4.73133c0.92141,3.14979 0.73865,5.98392 0.74227,9.32906c0.00303,2.80016 0.28622,5.65796 -0.01734,8.40045c-0.53033,4.79127 -1.90882,8.40363 -3.2789,12.42303c-0.22696,3.76082 -0.28185,7.43837 -0.46198,11.17651c-0.03968,0.82356 -0.654,1.90584 -0.30422,2.41503c0.70238,1.02248 2.09459,-0.37392 2.62403,0.96195c0.0036,0.00908 0.00723,0.02056 0.01089,0.03437c-2.58526,0.15279 -5.14966,0.36844 -7.70988,0.58866c-6.10808,0 -12.21616,0 -18.32424,0c-2.64256,-0.67273 -5.22758,-1.51534 -8.22461,-1.96255c-2.5712,-0.38366 -4.78653,-0.55148 -7.06601,-1.06678c-0.96077,-1.06206 -2.59835,-1.37788 -4.39911,-1.48657c-0.03492,-0.01608 -0.06991,-0.03229 -0.10496,-0.04864c-2.39127,-1.11544 -4.50715,-2.75723 -6.8668,-3.93809c-1.88674,-0.9442 -3.90177,-1.67017 -5.81548,-2.56493c-0.06488,-0.19642 -0.14057,-0.39662 -0.22755,-0.60047c-1.52725,-3.57909 -4.4161,-6.52761 -7.24448,-9.25493c0.00838,-0.04366 0.01615,-0.08749 0.02325,-0.13151c0.56522,-3.50066 0.49151,-7.39616 0.33806,-11.24364c0.8406,-2.3354 1.64879,-4.75729 2.16332,-7.53834zM178.88092,158.55322c-0.33632,0.69774 -0.58389,1.47495 -0.71357,2.41302c0.24977,-0.79722 0.48992,-1.60007 0.71357,-2.41302z" fill="#4cbd3d"/><path d="" fill="#4cbd3d"/><path d="" fill="#4cbd3d"/><path d="" fill="#4cbd3d"/><path d="M159.37428,158.54179c-0.23022,-0.74173 -0.39793,-1.7186 -0.51882,-3.33299c-0.76701,-10.24289 3.8003,-15.44663 5.42816,-24.24525c1.53538,-8.29882 0.99642,-17.54221 0.99642,-26.16356c0,-4.98508 -0.2161,-10.21115 0.00338,-15.17722c0.08515,-1.92663 0.01508,-4.00093 0.47871,-5.7305c0.49874,-1.86057 1.16855,-4.40609 2.2817,-4.56735c1.28866,-0.18669 2.33082,2.18918 3.3117,3.75702c0.34055,0.54434 0.06539,2.10066 0.49684,2.33055c0.93973,0.50071 2.16169,-4.0553 2.37648,-4.82521l-0.00088,-0.00087l1.24308,-4.37279c0.22092,-0.81627 0.67499,-1.37615 1.19928,-1.37615c0.68654,0 1.2527,0.96008 1.33258,2.19873l0.35856,4.91952c0.16399,1.18157 0.26334,2.52703 0.33771,4.67573c0.05951,1.71927 0.02672,3.44625 0.00305,5.16853c-0.01199,0.87202 -0.34767,2.62829 0.12052,2.60727c2.73286,-0.1227 3.24615,-8.46744 4.84062,-11.59593c0.57745,-1.133 1.29153,-2.48278 2.13024,-2.49426c1.24638,-0.01708 2.44298,1.2074 3.50683,2.41704c0.89568,1.01844 0.74621,4.052 1.67365,4.9665c0.24732,0.24386 3.54979,0.6536 3.91722,0.6235c0.86531,-0.07089 1.97956,-1.71231 2.58145,-0.55222c0.82455,1.58922 0.24858,4.40981 0.53319,6.55534c0.41645,3.13938 1.3721,5.51232 2.43384,7.9728c3.10012,-4.22333 5.08098,-12.16554 7.49282,-17.78599c0.54069,-1.26001 0.72741,-3.31485 1.53297,-3.90692c3.77677,-2.77585 3.52167,1.69069 3.59743,6.19288c0.01447,0.86015 -0.457,1.76576 -0.25335,2.53823c0.13921,0.52803 0.65122,-0.11989 0.94625,0.09006c0.27455,0.1954 0.45484,1.42973 0.67257,1.06201c0.40425,-0.68273 0.32607,-1.9432 0.43815,-2.93792c0.44503,-3.94974 0.49556,-11.54418 3.96597,-11.24022c0.93998,0.08233 1.71595,1.85095 2.15126,3.40487c0.48258,1.72267 0.29136,3.84823 0.42071,5.77631c0.19026,2.8359 0.53621,5.63481 0.92972,8.39719c0.23539,1.65237 0.40565,3.64348 1.14036,4.66813c0.29903,-4.57715 1.66204,-9.70786 3.86658,-12.33617c0.81234,-0.96849 2.06105,-2.82025 2.76453,-1.59124c1.00083,1.74852 0.70612,5.01498 0.65722,7.56921c-0.00306,0.15971 -1.68745,9.59826 -1.79379,9.91387c-0.90394,2.68282 -2.58241,4.42779 -3.22804,7.35802c-0.49395,2.24186 -0.29347,5.01887 -0.32972,7.32765c-0.02065,1.31499 -0.4263,2.74826 -0.12671,3.93961c0.57132,2.27198 2.49819,2.52827 3.14265,4.73132c0.92141,3.14979 0.73865,5.98392 0.74227,9.32907c0.00303,2.80016 0.28622,5.65796 -0.01733,8.40045c-0.53033,4.79127 -1.90882,8.40363 -3.2789,12.42303c-0.22696,3.76082 -0.28186,7.43837 -0.46198,11.17651c-0.03968,0.82356 -0.65401,1.90584 -0.30423,2.41503c0.70238,1.02248 2.09459,-0.37392 2.62403,0.96195c0.09717,0.24518 0.21783,2.24223 0.30093,4.49935c-5.40567,0.07093 -10.81104,0.20558 -16.2142,0.35839c-3.93789,0.11138 -7.80904,0.43312 -11.67068,0.76529c-6.10808,0 -12.21616,0 -18.32424,0c-2.64256,-0.67273 -5.22758,-1.51534 -8.22461,-1.96255c-2.5712,-0.38366 -4.78653,-0.55148 -7.06601,-1.06678c-0.96077,-1.06206 -2.59835,-1.37788 -4.39911,-1.48657c-0.03492,-0.01608 -0.06991,-0.03229 -0.10496,-0.04864c-0.9269,-0.43237 -1.81242,-0.94381 -2.6868,-1.47684c0.00385,-3.32029 0.03272,-6.64303 0.03272,-9.95863zM198.76588,153.55322c-0.33632,0.69774 -0.5839,1.47495 -0.71358,2.41302c0.24977,-0.79722 0.48993,-1.60007 0.71358,-2.41302z" fill="#66ff52"/><path d="" fill="#66ff52"/><path d="M190.30642,161.54179c-0.23022,-0.74173 -0.39793,-1.7186 -0.51882,-3.33299c-0.76701,-10.24289 3.80031,-15.44663 5.42817,-24.24525c1.53538,-8.29882 0.99641,-17.54221 0.99641,-26.16356c0,-4.98508 -0.2161,-10.21115 0.00338,-15.17722c0.08515,-1.92663 0.01508,-4.00093 0.47871,-5.7305c0.49874,-1.86057 1.16855,-4.40609 2.2817,-4.56735c1.28866,-0.18669 2.33082,2.18918 3.3117,3.75702c0.34055,0.54434 0.06538,2.10066 0.49684,2.33055c0.93973,0.50071 2.1617,-4.0553 2.37649,-4.82521l-0.00089,-0.00087l1.24308,-4.37279c0.22092,-0.81627 0.67499,-1.37615 1.19928,-1.37615c0.68654,0 1.2527,0.96008 1.33257,2.19873l0.35856,4.91952c0.16399,1.18157 0.26334,2.52703 0.33772,4.67573c0.05951,1.71927 0.02672,3.44625 0.00305,5.16853c-0.01199,0.87202 -0.34768,2.62829 0.12051,2.60727c2.73286,-0.1227 3.24616,-8.46744 4.84063,-11.59593c0.57745,-1.133 1.29153,-2.48278 2.13023,-2.49426c1.24638,-0.01708 2.44299,1.2074 3.50683,2.41704c0.89568,1.01844 0.74621,4.052 1.67365,4.9665c0.24732,0.24386 3.54978,0.6536 3.91721,0.6235c0.86531,-0.07089 1.97956,-1.71231 2.58145,-0.55222c0.82455,1.58922 0.24858,4.40981 0.53319,6.55534c0.41645,3.13938 1.3721,5.51232 2.43384,7.9728c3.10012,-4.22333 5.08098,-12.16554 7.49282,-17.78599c0.54069,-1.26001 0.72741,-3.31485 1.53298,-3.90692c3.77677,-2.77585 3.52166,1.69069 3.59742,6.19288c0.01447,0.86015 -0.457,1.76576 -0.25335,2.53823c0.13921,0.52803 0.65122,-0.11989 0.94625,0.09006c0.27455,0.1954 0.45484,1.42973 0.67257,1.06201c0.40425,-0.68273 0.32607,-1.9432 0.43815,-2.93792c0.44503,-3.94974 0.49556,-11.54418 3.96597,-11.24022c0.93998,0.08233 1.71595,1.85095 2.15126,3.40487c0.48258,1.72267 0.29135,3.84823 0.42071,5.77631c0.19026,2.8359 0.53621,5.63481 0.92972,8.39719c0.23539,1.65237 0.40566,3.64348 1.14037,4.66813c0.29903,-4.57715 1.66204,-9.70786 3.86658,-12.33617c0.81234,-0.96849 2.06104,-2.82025 2.76452,-1.59124c1.00083,1.74852 0.70613,5.01498 0.65722,7.56921c-0.00306,0.15971 -1.68745,9.59826 -1.79379,9.91387c-0.90394,2.68282 -2.58242,4.42779 -3.22804,7.35802c-0.49396,2.24186 -0.29347,5.01887 -0.32972,7.32765c-0.02065,1.31499 -0.4263,2.74826 -0.12671,3.93961c0.57132,2.27198 2.4982,2.52828 3.14265,4.73133c0.92141,3.14979 0.73865,5.98392 0.74228,9.32906c0.00302,2.80016 0.28622,5.65796 -0.01734,8.40045c-0.53033,4.79127 -1.90882,8.40363 -3.27889,12.42303c-0.22695,3.76082 -0.28186,7.43837 -0.46199,11.17651c-0.02366,0.49122 -0.25176,1.07447 -0.35779,1.57326c-1.21159,0.32226 -2.27832,0.58479 -3.15077,0.77257c-3.87684,0.83442 -7.92901,0.05897 -10.33897,2.45044c-0.02967,0.0241 -0.05907,0.04855 -0.08817,0.07331c-10.19593,-0.14675 -20.39687,0.07685 -30.58991,0.36514c-3.93789,0.11138 -7.80904,0.43312 -11.67068,0.76529c-3.28951,0 -6.57904,0 -9.86855,0c-0.02151,-4.33128 0.0277,-8.67173 0.0277,-13.00001zM229.69802,156.55322c-0.33632,0.69774 -0.58389,1.47495 -0.71358,2.41302c0.24977,-0.79722 0.48993,-1.60007 0.71358,-2.41302z" fill="#46d034"/><path d="" fill="#46d034"/><path d="" fill="#46d034"/><path d="" fill="#46d034"/><path d="M215.75206,163.54179c-0.24433,-0.74173 -0.42233,-1.7186 -0.55063,-3.33299c-0.81403,-10.24289 4.03332,-15.44663 5.76098,-24.24525c1.62952,-8.29882 1.05751,-17.54221 1.05751,-26.16356c0,-4.98508 -0.22935,-10.21115 0.00359,-15.17722c0.09037,-1.92663 0.01601,-4.00093 0.50806,-5.7305c0.52931,-1.86057 1.2402,-4.40609 2.42159,-4.56735c1.36766,-0.18669 2.47373,2.18918 3.51475,3.75702c0.36143,0.54434 0.0694,2.10066 0.5273,2.33055c0.99734,0.50071 2.29423,-4.0553 2.52219,-4.82521l-0.00094,-0.00087l1.3193,-4.37279c0.23447,-0.81627 0.71638,-1.37615 1.27281,-1.37615c0.72864,0 1.32949,0.96008 1.41427,2.19873l0.38055,4.91952c0.17405,1.18157 0.27948,2.52703 0.35842,4.67573c0.06316,1.71927 0.02836,3.44625 0.00324,5.16853c-0.01272,0.87202 -0.36899,2.62829 0.1279,2.60727c2.90042,-0.1227 3.44518,-8.46744 5.13742,-11.59593c0.61285,-1.133 1.37072,-2.48278 2.26085,-2.49426c1.3228,-0.01708 2.59277,1.2074 3.72185,2.41704c0.9506,1.01844 0.79195,4.052 1.77627,4.9665c0.26248,0.24386 3.76743,0.6536 4.15739,0.6235c0.91836,-0.07089 2.10093,-1.71231 2.73973,-0.55222c0.87511,1.58922 0.26382,4.40981 0.56588,6.55534c0.44198,3.13938 1.45623,5.51232 2.58307,7.9728c3.29019,-4.22333 5.3925,-12.16554 7.95222,-17.78599c0.57385,-1.26001 0.77201,-3.31485 1.62697,-3.90692c4.00833,-2.77585 3.73759,1.69069 3.81799,6.19288c0.01536,0.86015 -0.48501,1.76576 -0.26889,2.53823c0.14774,0.52803 0.69115,-0.11989 1.00426,0.09006c0.29139,0.1954 0.48273,1.42973 0.71381,1.06201c0.42903,-0.68273 0.34606,-1.9432 0.46501,-2.93792c0.47231,-3.94974 0.52595,-11.54418 4.20913,-11.24022c0.99761,0.08233 1.82116,1.85095 2.28316,3.40487c0.51217,1.72267 0.30921,3.84823 0.44651,5.77631c0.20193,2.8359 0.56908,5.63481 0.98672,8.39719c0.24982,1.65237 0.43053,3.64348 1.21028,4.66813c0.31736,-4.57715 1.76393,-9.70786 4.10365,-12.33617c0.86214,-0.96849 2.18741,-2.82025 2.93402,-1.59124c1.0622,1.74852 0.74942,5.01498 0.69752,7.56921c-0.00325,0.15971 -1.79091,9.59826 -1.90377,9.91387c-0.95936,2.68282 -2.74075,4.42779 -3.42595,7.35802c-0.52424,2.24186 -0.31146,5.01887 -0.34994,7.32765c-0.02191,1.31499 -0.45243,2.74826 -0.13448,3.93961c0.60636,2.27198 2.65137,2.52828 3.33534,4.73133c0.97791,3.14979 0.78394,5.98392 0.78778,9.32906c0.00322,2.80016 0.30376,5.65796 -0.0184,8.40045c-0.56284,4.79127 -2.02586,8.40363 -3.47994,12.42303c-0.00127,0.01979 -0.00253,0.03959 -0.00379,0.05938c-0.03384,0.01878 -0.06769,0.03744 -0.10155,0.05602c-6.02681,3.30434 -26.23592,9.86758 -33.38806,11.40695c-3.87684,0.83442 -7.92901,0.05897 -10.33897,2.45044c-0.02967,0.0241 -0.05907,0.04855 -0.08817,0.07331c-8.89595,-0.12804 -17.79572,0.02586 -26.69072,0.25866c0.00322,-3.37673 0.03492,-6.75619 0.03492,-10.12824zM257.55885,158.55322c-0.35694,0.69774 -0.6197,1.47495 -0.75733,2.41302c0.26509,-0.79722 0.51997,-1.60007 0.75733,-2.41302z" fill="#308f24"/><path d="" fill="#308f24"/><path d="" fill="#308f24"/><path d="" fill="#308f24"/><path d="" fill="#308f24"/></g></g></g></svg>