<svg version="1.1" xmlns="http://www.w3.org/2000/svg" xmlns:xlink="http://www.w3.org/1999/xlink" width="234.72974" height="303.81381" viewBox="0,0,234.72974,303.81381"><g transform="translate(-45.55556,19.45946)"><g data-paper-data="{&quot;isPaintingLayer&quot;:true}" fill="#ffffff" fill-rule="nonzero" stroke="none" stroke-width="0" stroke-linecap="butt" stroke-linejoin="miter" stroke-miterlimit="10" stroke-dasharray="" stroke-dashoffset="0" style="mix-blend-mode: normal"><path d="M200.21022,210.03004c0,41.04819 -34.62062,74.32432 -77.32733,74.32432c-42.7067,0 -77.32733,-33.27613 -77.32733,-74.32432c0,-41.04819 34.62062,-74.32432 77.32733,-74.32432c42.7067,0 77.32733,33.27613 77.32733,74.32432z"/><path d="M280.2853,148.96396c0,41.04819 -34.62062,74.32432 -77.32733,74.32432c-42.7067,0 -77.32733,-33.27613 -77.32733,-74.32432c0,-41.04819 34.62062,-74.32432 77.32733,-74.32432c42.7067,0 77.32733,33.27613 77.32733,74.32432z"/><path d="M243.24325,54.86486c0,41.04819 -34.62062,74.32432 -77.32733,74.32432c-42.7067,0 -77.32733,-33.27613 -77.32733,-74.32432c0,-41.04819 34.62062,-74.32432 77.32733,-74.32432c42.7067,0 77.32733,33.27613 77.32733,74.32432z"/></g></g></svg>