<svg version="1.1" xmlns="http://www.w3.org/2000/svg" xmlns:xlink="http://www.w3.org/1999/xlink" width="326.32133" height="242.25225" viewBox="0,0,326.32133,242.25225"><g transform="translate(-39.54955,-79.63964)"><g data-paper-data="{&quot;isPaintingLayer&quot;:true}" fill="#ffffff" fill-rule="nonzero" stroke="none" stroke-width="0" stroke-linecap="butt" stroke-linejoin="miter" stroke-miterlimit="10" stroke-dasharray="" stroke-dashoffset="0" style="mix-blend-mode: normal"><path d="M194.20421,247.56757c0,41.04819 -34.62062,74.32432 -77.32733,74.32432c-42.7067,0 -77.32733,-33.27613 -77.32733,-74.32432c0,-41.04819 34.62062,-74.32432 77.32733,-74.32432c42.7067,0 77.32733,33.27613 77.32733,74.32432z"/><path d="M365.87088,236.05105c0,41.04819 -34.62062,74.32432 -77.32733,74.32432c-42.7067,0 -77.32733,-33.27613 -77.32733,-74.32432c0,-41.04819 34.62062,-74.32432 77.32733,-74.32432c42.7067,0 77.32733,33.27613 77.32733,74.32432z"/><path d="M249.24926,153.96396c0,41.04819 -34.62062,74.32432 -77.32733,74.32432c-42.7067,0 -77.32733,-33.27613 -77.32733,-74.32432c0,-41.04819 34.62062,-74.32432 77.32733,-74.32432c42.7067,0 77.32733,33.27613 77.32733,74.32432z"/></g></g></svg>